<?xml version="1.0" encoding="UTF-8"?>
<svg xmlns="http://www.w3.org/2000/svg" xmlns:xlink="http://www.w3.org/1999/xlink" width="568.8875" height="423.862125" viewBox="0 0 568.8875 423.862125">
<defs>
<g>
<g id="glyph-0-0">
<path d="M 2.351562 -1.066406 L 2.351562 2.691406 L 1.183594 2.691406 L 1.183594 -7.109375 L 2.351562 -7.109375 L 2.351562 -6.03125 C 2.585938 -6.445312 2.898438 -6.757812 3.273438 -6.964844 C 3.652344 -7.171875 4.105469 -7.277344 4.625 -7.277344 C 5.484375 -7.277344 6.1875 -6.925781 6.730469 -6.25 C 7.265625 -5.5625 7.539062 -4.664062 7.539062 -3.546875 C 7.539062 -2.429688 7.265625 -1.519531 6.730469 -0.84375 C 6.1875 -0.167969 5.484375 0.167969 4.625 0.167969 C 4.105469 0.167969 3.652344 0.0664062 3.273438 -0.128906 C 2.898438 -0.324219 2.585938 -0.636719 2.351562 -1.066406 Z M 6.328125 -3.546875 C 6.328125 -4.40625 6.148438 -5.066406 5.796875 -5.5625 C 5.433594 -6.054688 4.953125 -6.304688 4.339844 -6.304688 C 3.714844 -6.304688 3.234375 -6.054688 2.886719 -5.5625 C 2.519531 -5.066406 2.351562 -4.40625 2.351562 -3.546875 C 2.351562 -2.691406 2.519531 -2.015625 2.886719 -1.519531 C 3.234375 -1.027344 3.714844 -0.792969 4.339844 -0.792969 C 4.953125 -0.792969 5.433594 -1.027344 5.796875 -1.519531 C 6.148438 -2.015625 6.328125 -2.691406 6.328125 -3.546875 Z M 6.328125 -3.546875 "/>
</g>
<g id="glyph-0-1">
<path d="M 5.339844 -6.015625 C 5.210938 -6.09375 5.066406 -6.148438 4.914062 -6.1875 C 4.757812 -6.210938 4.585938 -6.238281 4.40625 -6.238281 C 3.742188 -6.238281 3.234375 -6.015625 2.886719 -5.589844 C 2.519531 -5.160156 2.351562 -4.546875 2.351562 -3.742188 L 2.351562 0 L 1.183594 0 L 1.183594 -7.109375 L 2.351562 -7.109375 L 2.351562 -6.003906 C 2.585938 -6.433594 2.910156 -6.757812 3.300781 -6.964844 C 3.691406 -7.171875 4.171875 -7.277344 4.742188 -7.277344 C 4.820312 -7.277344 4.914062 -7.265625 5.015625 -7.265625 C 5.105469 -7.25 5.210938 -7.238281 5.339844 -7.210938 Z M 5.339844 -6.015625 "/>
</g>
<g id="glyph-0-2">
<path d="M 3.976562 -6.289062 C 3.351562 -6.289062 2.859375 -6.042969 2.496094 -5.550781 C 2.132812 -5.054688 1.949219 -4.390625 1.949219 -3.546875 C 1.949219 -2.691406 2.117188 -2.027344 2.480469 -1.535156 C 2.847656 -1.039062 3.339844 -0.804688 3.976562 -0.804688 C 4.601562 -0.804688 5.09375 -1.039062 5.457031 -1.535156 C 5.820312 -2.027344 6.003906 -2.691406 6.003906 -3.546875 C 6.003906 -4.378906 5.820312 -5.054688 5.457031 -5.550781 C 5.09375 -6.042969 4.601562 -6.289062 3.976562 -6.289062 Z M 3.976562 -7.277344 C 4.992188 -7.277344 5.78125 -6.941406 6.367188 -6.289062 C 6.941406 -5.628906 7.238281 -4.71875 7.238281 -3.546875 C 7.238281 -2.378906 6.941406 -1.46875 6.367188 -0.820312 C 5.78125 -0.15625 4.992188 0.167969 3.976562 0.167969 C 2.949219 0.167969 2.144531 -0.15625 1.574219 -0.820312 C 1 -1.46875 0.714844 -2.378906 0.714844 -3.546875 C 0.714844 -4.71875 1 -5.628906 1.574219 -6.289062 C 2.144531 -6.941406 2.949219 -7.277344 3.976562 -7.277344 Z M 3.976562 -7.277344 "/>
</g>
<g id="glyph-0-3">
<path d="M 5.898438 -6.03125 L 5.898438 -9.875 L 7.070312 -9.875 L 7.070312 0 L 5.898438 0 L 5.898438 -1.066406 C 5.652344 -0.636719 5.339844 -0.324219 4.964844 -0.128906 C 4.585938 0.0664062 4.144531 0.167969 3.625 0.167969 C 2.769531 0.167969 2.066406 -0.167969 1.519531 -0.84375 C 0.976562 -1.519531 0.714844 -2.429688 0.714844 -3.546875 C 0.714844 -4.664062 0.976562 -5.5625 1.519531 -6.25 C 2.066406 -6.925781 2.769531 -7.277344 3.625 -7.277344 C 4.144531 -7.277344 4.585938 -7.171875 4.964844 -6.964844 C 5.339844 -6.757812 5.652344 -6.445312 5.898438 -6.03125 Z M 1.921875 -3.546875 C 1.921875 -2.691406 2.09375 -2.015625 2.441406 -1.519531 C 2.792969 -1.027344 3.273438 -0.792969 3.898438 -0.792969 C 4.523438 -0.792969 5.003906 -1.027344 5.367188 -1.519531 C 5.71875 -2.015625 5.898438 -2.691406 5.898438 -3.546875 C 5.898438 -4.40625 5.71875 -5.066406 5.367188 -5.5625 C 5.003906 -6.054688 4.523438 -6.304688 3.898438 -6.304688 C 3.273438 -6.304688 2.792969 -6.054688 2.441406 -5.5625 C 2.09375 -5.066406 1.921875 -4.40625 1.921875 -3.546875 Z M 1.921875 -3.546875 "/>
</g>
<g id="glyph-0-4">
<path d="M 1.105469 -2.808594 L 1.105469 -7.109375 L 2.273438 -7.109375 L 2.273438 -2.847656 C 2.273438 -2.171875 2.402344 -1.675781 2.664062 -1.339844 C 2.925781 -1 3.3125 -0.832031 3.847656 -0.832031 C 4.46875 -0.832031 4.976562 -1.027344 5.339844 -1.429688 C 5.707031 -1.832031 5.886719 -2.378906 5.886719 -3.078125 L 5.886719 -7.109375 L 7.058594 -7.109375 L 7.058594 0 L 5.886719 0 L 5.886719 -1.089844 C 5.601562 -0.648438 5.261719 -0.335938 4.898438 -0.128906 C 4.523438 0.0664062 4.09375 0.167969 3.601562 0.167969 C 2.78125 0.167969 2.15625 -0.078125 1.742188 -0.585938 C 1.3125 -1.078125 1.105469 -1.820312 1.105469 -2.808594 Z M 4.042969 -7.277344 Z M 4.042969 -7.277344 "/>
</g>
<g id="glyph-0-5">
<path d="M 6.34375 -6.835938 L 6.34375 -5.742188 C 6.003906 -5.925781 5.679688 -6.054688 5.339844 -6.148438 C 5.003906 -6.238281 4.679688 -6.289062 4.339844 -6.289062 C 3.585938 -6.289062 2.988281 -6.042969 2.574219 -5.5625 C 2.15625 -5.082031 1.949219 -4.40625 1.949219 -3.546875 C 1.949219 -2.675781 2.15625 -2 2.574219 -1.519531 C 2.988281 -1.039062 3.585938 -0.804688 4.339844 -0.804688 C 4.679688 -0.804688 5.003906 -0.84375 5.339844 -0.9375 C 5.679688 -1.027344 6.003906 -1.167969 6.34375 -1.351562 L 6.34375 -0.273438 C 6.003906 -0.117188 5.667969 0 5.328125 0.0664062 C 4.976562 0.128906 4.601562 0.167969 4.210938 0.167969 C 3.144531 0.167969 2.289062 -0.15625 1.664062 -0.832031 C 1.027344 -1.496094 0.714844 -2.402344 0.714844 -3.546875 C 0.714844 -4.703125 1.027344 -5.613281 1.664062 -6.277344 C 2.300781 -6.941406 3.171875 -7.277344 4.289062 -7.277344 C 4.652344 -7.277344 5.003906 -7.238281 5.339844 -7.160156 C 5.679688 -7.082031 6.015625 -6.980469 6.34375 -6.835938 Z M 6.34375 -6.835938 "/>
</g>
<g id="glyph-0-6">
<path d="M 2.378906 -9.121094 L 2.378906 -7.109375 L 4.78125 -7.109375 L 4.78125 -6.199219 L 2.378906 -6.199219 L 2.378906 -2.339844 C 2.378906 -1.753906 2.457031 -1.378906 2.613281 -1.222656 C 2.769531 -1.050781 3.09375 -0.976562 3.585938 -0.976562 L 4.78125 -0.976562 L 4.78125 0 L 3.585938 0 C 2.675781 0 2.054688 -0.167969 1.714844 -0.507812 C 1.378906 -0.84375 1.207031 -1.457031 1.207031 -2.339844 L 1.207031 -6.199219 L 0.351562 -6.199219 L 0.351562 -7.109375 L 1.207031 -7.109375 L 1.207031 -9.121094 Z M 2.378906 -9.121094 "/>
</g>
<g id="glyph-0-7">
<path d="M 5.757812 -6.902344 L 5.757812 -5.796875 C 5.417969 -5.953125 5.082031 -6.082031 4.730469 -6.171875 C 4.367188 -6.25 4.003906 -6.304688 3.625 -6.304688 C 3.039062 -6.304688 2.597656 -6.210938 2.3125 -6.03125 C 2.027344 -5.847656 1.882812 -5.589844 1.882812 -5.238281 C 1.882812 -4.964844 1.988281 -4.757812 2.195312 -4.601562 C 2.402344 -4.445312 2.820312 -4.289062 3.445312 -4.160156 L 3.847656 -4.066406 C 4.679688 -3.886719 5.261719 -3.625 5.613281 -3.3125 C 5.953125 -2.988281 6.132812 -2.535156 6.132812 -1.960938 C 6.132812 -1.300781 5.875 -0.78125 5.355469 -0.402344 C 4.835938 -0.0117188 4.105469 0.167969 3.195312 0.167969 C 2.808594 0.167969 2.417969 0.128906 2 0.0664062 C 1.585938 0 1.15625 -0.105469 0.703125 -0.261719 L 0.703125 -1.46875 C 1.128906 -1.234375 1.558594 -1.066406 1.976562 -0.960938 C 2.390625 -0.84375 2.808594 -0.792969 3.222656 -0.792969 C 3.769531 -0.792969 4.199219 -0.882812 4.496094 -1.066406 C 4.78125 -1.246094 4.9375 -1.519531 4.9375 -1.871094 C 4.9375 -2.183594 4.820312 -2.429688 4.613281 -2.597656 C 4.40625 -2.769531 3.9375 -2.9375 3.210938 -3.09375 L 2.808594 -3.183594 C 2.078125 -3.339844 1.546875 -3.574219 1.234375 -3.886719 C 0.910156 -4.199219 0.753906 -4.625 0.753906 -5.183594 C 0.753906 -5.847656 0.988281 -6.367188 1.457031 -6.730469 C 1.921875 -7.09375 2.597656 -7.277344 3.484375 -7.277344 C 3.910156 -7.277344 4.316406 -7.238281 4.703125 -7.171875 C 5.082031 -7.109375 5.433594 -7.019531 5.757812 -6.902344 Z M 5.757812 -6.902344 "/>
</g>
<g id="glyph-0-8">
<path d="M 4.457031 -3.574219 C 3.507812 -3.574219 2.859375 -3.457031 2.496094 -3.25 C 2.132812 -3.027344 1.949219 -2.664062 1.949219 -2.144531 C 1.949219 -1.726562 2.078125 -1.390625 2.351562 -1.15625 C 2.625 -0.910156 3.003906 -0.792969 3.46875 -0.792969 C 4.121094 -0.792969 4.640625 -1.011719 5.03125 -1.480469 C 5.417969 -1.9375 5.613281 -2.546875 5.613281 -3.3125 L 5.613281 -3.574219 Z M 6.785156 -4.054688 L 6.785156 0 L 5.613281 0 L 5.613281 -1.078125 C 5.339844 -0.636719 5.003906 -0.324219 4.613281 -0.128906 C 4.222656 0.0664062 3.730469 0.167969 3.15625 0.167969 C 2.429688 0.167969 1.84375 -0.0273438 1.417969 -0.429688 C 0.988281 -0.832031 0.78125 -1.378906 0.78125 -2.066406 C 0.78125 -2.859375 1.039062 -3.457031 1.585938 -3.871094 C 2.117188 -4.277344 2.910156 -4.484375 3.976562 -4.484375 L 5.613281 -4.484375 L 5.613281 -4.601562 C 5.613281 -5.132812 5.433594 -5.550781 5.082031 -5.847656 C 4.730469 -6.132812 4.238281 -6.289062 3.601562 -6.289062 C 3.183594 -6.289062 2.792969 -6.238281 2.402344 -6.132812 C 2.015625 -6.03125 1.652344 -5.886719 1.300781 -5.707031 L 1.300781 -6.785156 C 1.714844 -6.941406 2.132812 -7.070312 2.535156 -7.148438 C 2.9375 -7.226562 3.328125 -7.277344 3.714844 -7.277344 C 4.742188 -7.277344 5.511719 -7.003906 6.015625 -6.472656 C 6.523438 -5.9375 6.785156 -5.132812 6.785156 -4.054688 Z M 6.785156 -4.054688 "/>
</g>
<g id="glyph-0-9">
<path d="M 7.304688 -3.847656 L 7.304688 -3.273438 L 1.9375 -3.273438 C 1.988281 -2.46875 2.222656 -1.84375 2.664062 -1.429688 C 3.09375 -1.011719 3.691406 -0.804688 4.46875 -0.804688 C 4.914062 -0.804688 5.355469 -0.859375 5.769531 -0.960938 C 6.1875 -1.066406 6.613281 -1.234375 7.03125 -1.46875 L 7.03125 -0.363281 C 6.613281 -0.183594 6.1875 -0.0390625 5.742188 0.0390625 C 5.300781 0.117188 4.847656 0.167969 4.40625 0.167969 C 3.261719 0.167969 2.363281 -0.15625 1.703125 -0.804688 C 1.039062 -1.457031 0.714844 -2.351562 0.714844 -3.484375 C 0.714844 -4.640625 1.027344 -5.5625 1.652344 -6.25 C 2.273438 -6.925781 3.132812 -7.277344 4.199219 -7.277344 C 5.160156 -7.277344 5.914062 -6.964844 6.472656 -6.355469 C 7.019531 -5.730469 7.304688 -4.898438 7.304688 -3.847656 Z M 6.132812 -4.183594 C 6.121094 -4.820312 5.9375 -5.328125 5.601562 -5.71875 C 5.25 -6.09375 4.78125 -6.289062 4.210938 -6.289062 C 3.5625 -6.289062 3.039062 -6.09375 2.652344 -5.730469 C 2.261719 -5.367188 2.027344 -4.847656 1.976562 -4.183594 Z M 6.132812 -4.183594 "/>
</g>
<g id="glyph-0-10">
<path d="M 0.390625 -7.109375 L 1.625 -7.109375 L 3.847656 -1.144531 L 6.070312 -7.109375 L 7.304688 -7.109375 L 4.640625 0 L 3.054688 0 Z M 0.390625 -7.109375 "/>
</g>
<g id="glyph-0-11">
<path d="M 1.222656 -7.109375 L 2.390625 -7.109375 L 2.390625 0 L 1.222656 0 Z M 1.222656 -9.875 L 2.390625 -9.875 L 2.390625 -8.394531 L 1.222656 -8.394531 Z M 1.222656 -9.875 "/>
</g>
<g id="glyph-0-12">
<path d="M 0.546875 -7.109375 L 1.714844 -7.109375 L 3.171875 -1.558594 L 4.625 -7.109375 L 6.003906 -7.109375 L 7.460938 -1.558594 L 8.914062 -7.109375 L 10.085938 -7.109375 L 8.226562 0 L 6.847656 0 L 5.316406 -5.820312 L 3.78125 0 L 2.402344 0 Z M 0.546875 -7.109375 "/>
</g>
<g id="glyph-0-13">
<path d="M 6.328125 -3.546875 C 6.328125 -4.40625 6.148438 -5.066406 5.796875 -5.5625 C 5.433594 -6.054688 4.953125 -6.304688 4.339844 -6.304688 C 3.714844 -6.304688 3.234375 -6.054688 2.886719 -5.5625 C 2.519531 -5.066406 2.351562 -4.40625 2.351562 -3.546875 C 2.351562 -2.691406 2.519531 -2.015625 2.886719 -1.519531 C 3.234375 -1.027344 3.714844 -0.792969 4.339844 -0.792969 C 4.953125 -0.792969 5.433594 -1.027344 5.796875 -1.519531 C 6.148438 -2.015625 6.328125 -2.691406 6.328125 -3.546875 Z M 2.351562 -6.03125 C 2.585938 -6.445312 2.898438 -6.757812 3.273438 -6.964844 C 3.652344 -7.171875 4.105469 -7.277344 4.625 -7.277344 C 5.484375 -7.277344 6.1875 -6.925781 6.730469 -6.25 C 7.265625 -5.5625 7.539062 -4.664062 7.539062 -3.546875 C 7.539062 -2.429688 7.265625 -1.519531 6.730469 -0.84375 C 6.1875 -0.167969 5.484375 0.167969 4.625 0.167969 C 4.105469 0.167969 3.652344 0.0664062 3.273438 -0.128906 C 2.898438 -0.324219 2.585938 -0.636719 2.351562 -1.066406 L 2.351562 0 L 1.183594 0 L 1.183594 -9.875 L 2.351562 -9.875 Z M 2.351562 -6.03125 "/>
</g>
<g id="glyph-0-14">
<path d="M 7.132812 -4.289062 L 7.132812 0 L 5.964844 0 L 5.964844 -4.25 C 5.964844 -4.925781 5.820312 -5.417969 5.5625 -5.757812 C 5.300781 -6.09375 4.914062 -6.265625 4.390625 -6.265625 C 3.753906 -6.265625 3.261719 -6.054688 2.898438 -5.652344 C 2.535156 -5.25 2.351562 -4.703125 2.351562 -4.015625 L 2.351562 0 L 1.183594 0 L 1.183594 -7.109375 L 2.351562 -7.109375 L 2.351562 -6.003906 C 2.625 -6.417969 2.949219 -6.746094 3.339844 -6.953125 C 3.714844 -7.160156 4.160156 -7.277344 4.652344 -7.277344 C 5.457031 -7.277344 6.082031 -7.019531 6.496094 -6.511719 C 6.914062 -6.003906 7.132812 -5.261719 7.132812 -4.289062 Z M 7.132812 -4.289062 "/>
</g>
<g id="glyph-0-15">
</g>
<g id="glyph-0-16">
<path d="M 6.757812 -5.742188 C 7.042969 -6.265625 7.394531 -6.640625 7.796875 -6.902344 C 8.199219 -7.148438 8.679688 -7.277344 9.238281 -7.277344 C 9.96875 -7.277344 10.539062 -7.019531 10.941406 -6.496094 C 11.34375 -5.976562 11.554688 -5.238281 11.554688 -4.289062 L 11.554688 0 L 10.382812 0 L 10.382812 -4.25 C 10.382812 -4.925781 10.253906 -5.433594 10.019531 -5.769531 C 9.773438 -6.09375 9.410156 -6.265625 8.914062 -6.265625 C 8.304688 -6.265625 7.824219 -6.054688 7.472656 -5.652344 C 7.121094 -5.25 6.953125 -4.703125 6.953125 -4.015625 L 6.953125 0 L 5.78125 0 L 5.78125 -4.25 C 5.78125 -4.925781 5.652344 -5.433594 5.417969 -5.769531 C 5.171875 -6.09375 4.796875 -6.265625 4.300781 -6.265625 C 3.703125 -6.265625 3.222656 -6.054688 2.871094 -5.652344 C 2.519531 -5.25 2.351562 -4.703125 2.351562 -4.015625 L 2.351562 0 L 1.183594 0 L 1.183594 -7.109375 L 2.351562 -7.109375 L 2.351562 -6.003906 C 2.613281 -6.433594 2.9375 -6.757812 3.3125 -6.964844 C 3.679688 -7.171875 4.121094 -7.277344 4.640625 -7.277344 C 5.160156 -7.277344 5.589844 -7.148438 5.953125 -6.886719 C 6.316406 -6.628906 6.574219 -6.238281 6.757812 -5.742188 Z M 6.757812 -5.742188 "/>
</g>
<g id="glyph-0-17">
<path d="M 0.714844 -7.109375 L 6.265625 -7.109375 L 6.265625 -6.042969 L 1.871094 -0.9375 L 6.265625 -0.9375 L 6.265625 0 L 0.558594 0 L 0.558594 -1.066406 L 4.953125 -6.171875 L 0.714844 -6.171875 Z M 0.714844 -7.109375 "/>
</g>
<g id="glyph-0-18">
<path d="M 7.132812 -4.289062 L 7.132812 0 L 5.964844 0 L 5.964844 -4.25 C 5.964844 -4.925781 5.820312 -5.417969 5.5625 -5.757812 C 5.300781 -6.09375 4.914062 -6.265625 4.390625 -6.265625 C 3.753906 -6.265625 3.261719 -6.054688 2.898438 -5.652344 C 2.535156 -5.25 2.351562 -4.703125 2.351562 -4.015625 L 2.351562 0 L 1.183594 0 L 1.183594 -9.875 L 2.351562 -9.875 L 2.351562 -6.003906 C 2.625 -6.417969 2.949219 -6.746094 3.339844 -6.953125 C 3.714844 -7.160156 4.160156 -7.277344 4.652344 -7.277344 C 5.457031 -7.277344 6.082031 -7.019531 6.496094 -6.511719 C 6.914062 -6.003906 7.132812 -5.261719 7.132812 -4.289062 Z M 7.132812 -4.289062 "/>
</g>
<g id="glyph-0-19">
<path d="M 4.183594 0.648438 C 3.847656 1.480469 3.523438 2.039062 3.210938 2.300781 C 2.898438 2.558594 2.480469 2.691406 1.960938 2.691406 L 1.027344 2.691406 L 1.027344 1.714844 L 1.714844 1.714844 C 2.027344 1.714844 2.273438 1.636719 2.457031 1.480469 C 2.636719 1.324219 2.832031 0.976562 3.054688 0.402344 L 3.261719 -0.117188 L 0.390625 -7.109375 L 1.625 -7.109375 L 3.847656 -1.546875 L 6.070312 -7.109375 L 7.304688 -7.109375 Z M 4.183594 0.648438 "/>
</g>
<g id="glyph-0-20">
<path d="M 1.222656 -9.875 L 2.390625 -9.875 L 2.390625 0 L 1.222656 0 Z M 1.222656 -9.875 "/>
</g>
<g id="glyph-0-21">
<path d="M 1.183594 -9.875 L 2.351562 -9.875 L 2.351562 -4.042969 L 5.835938 -7.109375 L 7.328125 -7.109375 L 3.5625 -3.78125 L 7.484375 0 L 5.964844 0 L 2.351562 -3.46875 L 2.351562 0 L 1.183594 0 Z M 1.183594 -9.875 "/>
</g>
<g id="glyph-1-0">
<path d="M 1.371094 -10.203125 L 7.234375 -10.203125 L 7.234375 -9.042969 L 2.757812 -9.042969 L 2.757812 -6.03125 L 6.800781 -6.03125 L 6.800781 -4.871094 L 2.757812 -4.871094 L 2.757812 0 L 1.371094 0 Z M 1.371094 -10.203125 "/>
</g>
<g id="glyph-1-1">
<path d="M 7.867188 -4.144531 L 7.867188 -3.527344 L 2.085938 -3.527344 C 2.140625 -2.660156 2.394531 -1.988281 2.867188 -1.539062 C 3.332031 -1.089844 3.976562 -0.867188 4.8125 -0.867188 C 5.289062 -0.867188 5.765625 -0.921875 6.214844 -1.035156 C 6.660156 -1.148438 7.125 -1.328125 7.570312 -1.582031 L 7.570312 -0.390625 C 7.125 -0.195312 6.660156 -0.0429688 6.1875 0.0429688 C 5.710938 0.125 5.21875 0.183594 4.746094 0.183594 C 3.511719 0.183594 2.546875 -0.167969 1.832031 -0.867188 C 1.121094 -1.566406 0.769531 -2.53125 0.769531 -3.75 C 0.769531 -4.996094 1.105469 -5.988281 1.777344 -6.730469 C 2.449219 -7.460938 3.371094 -7.835938 4.519531 -7.835938 C 5.554688 -7.835938 6.367188 -7.5 6.96875 -6.84375 C 7.558594 -6.171875 7.867188 -5.277344 7.867188 -4.144531 Z M 6.605469 -4.507812 C 6.59375 -5.191406 6.394531 -5.738281 6.03125 -6.15625 C 5.652344 -6.5625 5.148438 -6.773438 4.535156 -6.773438 C 3.835938 -6.773438 3.273438 -6.5625 2.855469 -6.171875 C 2.433594 -5.78125 2.183594 -5.21875 2.128906 -4.507812 Z M 6.605469 -4.507812 "/>
</g>
<g id="glyph-1-2">
<path d="M 4.800781 -3.847656 C 3.777344 -3.847656 3.078125 -3.722656 2.6875 -3.5 C 2.296875 -3.261719 2.097656 -2.867188 2.097656 -2.308594 C 2.097656 -1.863281 2.238281 -1.496094 2.53125 -1.246094 C 2.828125 -0.980469 3.234375 -0.855469 3.738281 -0.855469 C 4.4375 -0.855469 4.996094 -1.089844 5.417969 -1.59375 C 5.835938 -2.085938 6.046875 -2.742188 6.046875 -3.570312 L 6.046875 -3.847656 Z M 7.304688 -4.367188 L 7.304688 0 L 6.046875 0 L 6.046875 -1.160156 C 5.753906 -0.6875 5.386719 -0.351562 4.96875 -0.140625 C 4.546875 0.0703125 4.015625 0.183594 3.402344 0.183594 C 2.617188 0.183594 1.988281 -0.0273438 1.527344 -0.460938 C 1.0625 -0.894531 0.839844 -1.484375 0.839844 -2.226562 C 0.839844 -3.078125 1.121094 -3.722656 1.707031 -4.171875 C 2.28125 -4.605469 3.136719 -4.828125 4.28125 -4.828125 L 6.046875 -4.828125 L 6.046875 -4.953125 C 6.046875 -5.527344 5.851562 -5.976562 5.472656 -6.296875 C 5.09375 -6.605469 4.5625 -6.773438 3.875 -6.773438 C 3.429688 -6.773438 3.007812 -6.71875 2.589844 -6.605469 C 2.167969 -6.492188 1.777344 -6.339844 1.398438 -6.144531 L 1.398438 -7.304688 C 1.847656 -7.472656 2.296875 -7.613281 2.730469 -7.699219 C 3.164062 -7.78125 3.582031 -7.835938 4.003906 -7.835938 C 5.109375 -7.835938 5.933594 -7.542969 6.480469 -6.96875 C 7.027344 -6.394531 7.304688 -5.527344 7.304688 -4.367188 Z M 7.304688 -4.367188 "/>
</g>
<g id="glyph-1-3">
<path d="M 2.5625 -9.824219 L 2.5625 -7.65625 L 5.148438 -7.65625 L 5.148438 -6.675781 L 2.5625 -6.675781 L 2.5625 -2.519531 C 2.5625 -1.890625 2.644531 -1.484375 2.8125 -1.316406 C 2.980469 -1.132812 3.332031 -1.050781 3.863281 -1.050781 L 5.148438 -1.050781 L 5.148438 0 L 3.863281 0 C 2.882812 0 2.210938 -0.183594 1.847656 -0.546875 C 1.484375 -0.910156 1.300781 -1.566406 1.300781 -2.519531 L 1.300781 -6.675781 L 0.378906 -6.675781 L 0.378906 -7.65625 L 1.300781 -7.65625 L 1.300781 -9.824219 Z M 2.5625 -9.824219 "/>
</g>
<g id="glyph-1-4">
<path d="M 1.191406 -3.023438 L 1.191406 -7.65625 L 2.449219 -7.65625 L 2.449219 -3.066406 C 2.449219 -2.335938 2.589844 -1.804688 2.867188 -1.441406 C 3.148438 -1.078125 3.570312 -0.894531 4.144531 -0.894531 C 4.8125 -0.894531 5.359375 -1.105469 5.753906 -1.539062 C 6.144531 -1.972656 6.339844 -2.5625 6.339844 -3.316406 L 6.339844 -7.65625 L 7.597656 -7.65625 L 7.597656 0 L 6.339844 0 L 6.339844 -1.175781 C 6.03125 -0.699219 5.667969 -0.363281 5.277344 -0.140625 C 4.871094 0.0703125 4.410156 0.183594 3.875 0.183594 C 2.996094 0.183594 2.324219 -0.0820312 1.875 -0.628906 C 1.414062 -1.160156 1.191406 -1.960938 1.191406 -3.023438 Z M 4.351562 -7.835938 Z M 4.351562 -7.835938 "/>
</g>
<g id="glyph-1-5">
<path d="M 5.753906 -6.480469 C 5.613281 -6.5625 5.457031 -6.621094 5.289062 -6.660156 C 5.121094 -6.691406 4.941406 -6.71875 4.746094 -6.71875 C 4.03125 -6.71875 3.484375 -6.480469 3.105469 -6.019531 C 2.714844 -5.554688 2.53125 -4.898438 2.53125 -4.03125 L 2.53125 0 L 1.273438 0 L 1.273438 -7.65625 L 2.53125 -7.65625 L 2.53125 -6.464844 C 2.785156 -6.929688 3.136719 -7.277344 3.554688 -7.5 C 3.976562 -7.726562 4.492188 -7.835938 5.109375 -7.835938 C 5.191406 -7.835938 5.289062 -7.824219 5.402344 -7.824219 C 5.5 -7.808594 5.613281 -7.796875 5.753906 -7.765625 Z M 5.753906 -6.480469 "/>
</g>
<g id="glyph-1-6">
</g>
<g id="glyph-1-7">
<path d="M 1.371094 -10.203125 L 3.234375 -10.203125 L 7.753906 -1.664062 L 7.753906 -10.203125 L 9.097656 -10.203125 L 9.097656 0 L 7.234375 0 L 2.714844 -8.539062 L 2.714844 0 L 1.371094 0 Z M 1.371094 -10.203125 "/>
</g>
<g id="glyph-1-8">
<path d="M 7.277344 -6.1875 C 7.585938 -6.746094 7.964844 -7.152344 8.398438 -7.429688 C 8.832031 -7.699219 9.347656 -7.835938 9.949219 -7.835938 C 10.734375 -7.835938 11.351562 -7.558594 11.785156 -6.996094 C 12.21875 -6.4375 12.441406 -5.640625 12.441406 -4.617188 L 12.441406 0 L 11.183594 0 L 11.183594 -4.578125 C 11.183594 -5.304688 11.042969 -5.851562 10.789062 -6.214844 C 10.523438 -6.5625 10.132812 -6.746094 9.601562 -6.746094 C 8.941406 -6.746094 8.425781 -6.523438 8.046875 -6.089844 C 7.667969 -5.652344 7.488281 -5.066406 7.488281 -4.324219 L 7.488281 0 L 6.226562 0 L 6.226562 -4.578125 C 6.226562 -5.304688 6.089844 -5.851562 5.835938 -6.214844 C 5.570312 -6.5625 5.164062 -6.746094 4.632812 -6.746094 C 3.988281 -6.746094 3.472656 -6.523438 3.09375 -6.089844 C 2.714844 -5.652344 2.53125 -5.066406 2.53125 -4.324219 L 2.53125 0 L 1.273438 0 L 1.273438 -7.65625 L 2.53125 -7.65625 L 2.53125 -6.464844 C 2.8125 -6.929688 3.164062 -7.277344 3.570312 -7.5 C 3.960938 -7.726562 4.4375 -7.835938 4.996094 -7.835938 C 5.554688 -7.835938 6.019531 -7.699219 6.410156 -7.417969 C 6.800781 -7.136719 7.082031 -6.71875 7.277344 -6.1875 Z M 7.277344 -6.1875 "/>
</g>
<g id="glyph-2-0">
<path d="M 3.179688 -6.636719 C 2.667969 -6.636719 2.289062 -6.386719 2.03125 -5.886719 C 1.769531 -5.386719 1.648438 -4.636719 1.648438 -3.640625 C 1.648438 -2.640625 1.769531 -1.890625 2.03125 -1.390625 C 2.289062 -0.890625 2.667969 -0.640625 3.179688 -0.640625 C 3.6875 -0.640625 4.070312 -0.890625 4.328125 -1.390625 C 4.578125 -1.890625 4.707031 -2.640625 4.707031 -3.640625 C 4.707031 -4.636719 4.578125 -5.386719 4.328125 -5.886719 C 4.070312 -6.386719 3.6875 -6.636719 3.179688 -6.636719 Z M 3.179688 -7.417969 C 3.988281 -7.417969 4.609375 -7.085938 5.046875 -6.449219 C 5.476562 -5.796875 5.699219 -4.859375 5.699219 -3.640625 C 5.699219 -2.410156 5.476562 -1.46875 5.046875 -0.828125 C 4.609375 -0.191406 3.988281 0.128906 3.167969 0.128906 C 2.347656 0.128906 1.730469 -0.191406 1.300781 -0.828125 C 0.871094 -1.46875 0.660156 -2.410156 0.660156 -3.640625 C 0.660156 -4.859375 0.871094 -5.796875 1.300781 -6.449219 C 1.730469 -7.085938 2.359375 -7.417969 3.179688 -7.417969 Z M 3.179688 -7.417969 "/>
</g>
<g id="glyph-2-1">
<path d="M 1.070312 -1.238281 L 2.097656 -1.238281 L 2.097656 0 L 1.070312 0 Z M 1.070312 -1.238281 "/>
</g>
<g id="glyph-2-2">
<path d="M 0.820312 -7.289062 L 5.507812 -7.289062 L 5.507812 -6.867188 L 2.859375 0 L 1.828125 0 L 4.320312 -6.457031 L 0.820312 -6.457031 Z M 0.820312 -7.289062 "/>
</g>
<g id="glyph-2-3">
<path d="M 1.078125 -7.289062 L 4.949219 -7.289062 L 4.949219 -6.457031 L 1.980469 -6.457031 L 1.980469 -4.667969 C 2.121094 -4.71875 2.269531 -4.757812 2.410156 -4.777344 C 2.550781 -4.796875 2.699219 -4.820312 2.839844 -4.820312 C 3.648438 -4.820312 4.289062 -4.589844 4.769531 -4.148438 C 5.25 -3.699219 5.488281 -3.097656 5.488281 -2.339844 C 5.488281 -1.550781 5.238281 -0.941406 4.75 -0.511719 C 4.257812 -0.078125 3.570312 0.128906 2.6875 0.128906 C 2.378906 0.128906 2.070312 0.101562 1.75 0.0585938 C 1.429688 0.0117188 1.109375 -0.0585938 0.769531 -0.171875 L 0.769531 -1.160156 C 1.058594 -1 1.359375 -0.878906 1.679688 -0.800781 C 1.988281 -0.71875 2.320312 -0.691406 2.667969 -0.691406 C 3.230469 -0.691406 3.679688 -0.828125 4.007812 -1.128906 C 4.328125 -1.429688 4.5 -1.828125 4.5 -2.339844 C 4.5 -2.839844 4.328125 -3.238281 4.007812 -3.539062 C 3.679688 -3.839844 3.230469 -3.988281 2.667969 -3.988281 C 2.410156 -3.988281 2.140625 -3.957031 1.878906 -3.898438 C 1.621094 -3.839844 1.347656 -3.75 1.078125 -3.628906 Z M 1.078125 -7.289062 "/>
</g>
<g id="glyph-2-4">
<path d="M 1.917969 -0.828125 L 5.359375 -0.828125 L 5.359375 0 L 0.730469 0 L 0.730469 -0.828125 C 1.101562 -1.210938 1.609375 -1.730469 2.257812 -2.390625 C 2.898438 -3.039062 3.308594 -3.457031 3.480469 -3.648438 C 3.796875 -4 4.019531 -4.296875 4.136719 -4.546875 C 4.257812 -4.789062 4.328125 -5.039062 4.328125 -5.277344 C 4.328125 -5.65625 4.1875 -5.976562 3.917969 -6.21875 C 3.648438 -6.457031 3.300781 -6.585938 2.859375 -6.585938 C 2.550781 -6.585938 2.21875 -6.527344 1.878906 -6.429688 C 1.539062 -6.316406 1.167969 -6.15625 0.78125 -5.9375 L 0.78125 -6.9375 C 1.179688 -7.097656 1.550781 -7.21875 1.890625 -7.296875 C 2.230469 -7.378906 2.550781 -7.417969 2.839844 -7.417969 C 3.589844 -7.417969 4.1875 -7.226562 4.636719 -6.847656 C 5.089844 -6.46875 5.316406 -5.96875 5.316406 -5.339844 C 5.316406 -5.039062 5.257812 -4.75 5.148438 -4.488281 C 5.039062 -4.21875 4.839844 -3.898438 4.539062 -3.539062 C 4.457031 -3.4375 4.199219 -3.167969 3.757812 -2.71875 C 3.320312 -2.269531 2.710938 -1.640625 1.917969 -0.828125 Z M 1.917969 -0.828125 "/>
</g>
<g id="glyph-3-0">
<path d="M -10.203125 -1.371094 L -10.203125 -2.757812 L 0 -2.757812 L 0 -1.371094 Z M -10.203125 -1.371094 "/>
</g>
<g id="glyph-3-1">
<path d="M -6.1875 -7.277344 C -6.746094 -7.585938 -7.152344 -7.964844 -7.429688 -8.398438 C -7.699219 -8.832031 -7.835938 -9.347656 -7.835938 -9.949219 C -7.835938 -10.734375 -7.558594 -11.351562 -6.996094 -11.785156 C -6.4375 -12.21875 -5.640625 -12.441406 -4.617188 -12.441406 L 0 -12.441406 L 0 -11.183594 L -4.578125 -11.183594 C -5.304688 -11.183594 -5.851562 -11.042969 -6.214844 -10.789062 C -6.5625 -10.523438 -6.746094 -10.132812 -6.746094 -9.601562 C -6.746094 -8.941406 -6.523438 -8.425781 -6.089844 -8.046875 C -5.652344 -7.667969 -5.066406 -7.488281 -4.324219 -7.488281 L 0 -7.488281 L 0 -6.226562 L -4.578125 -6.226562 C -5.304688 -6.226562 -5.851562 -6.089844 -6.214844 -5.835938 C -6.5625 -5.570312 -6.746094 -5.164062 -6.746094 -4.632812 C -6.746094 -3.988281 -6.523438 -3.472656 -6.089844 -3.09375 C -5.652344 -2.714844 -5.066406 -2.53125 -4.324219 -2.53125 L 0 -2.53125 L 0 -1.273438 L -7.65625 -1.273438 L -7.65625 -2.53125 L -6.464844 -2.53125 C -6.929688 -2.8125 -7.277344 -3.164062 -7.5 -3.570312 C -7.726562 -3.960938 -7.835938 -4.4375 -7.835938 -4.996094 C -7.835938 -5.554688 -7.699219 -6.019531 -7.417969 -6.410156 C -7.136719 -6.800781 -6.71875 -7.082031 -6.1875 -7.277344 Z M -6.1875 -7.277344 "/>
</g>
<g id="glyph-3-2">
<path d="M -1.148438 -2.53125 L 2.898438 -2.53125 L 2.898438 -1.273438 L -7.65625 -1.273438 L -7.65625 -2.53125 L -6.492188 -2.53125 C -6.941406 -2.785156 -7.277344 -3.121094 -7.5 -3.527344 C -7.726562 -3.933594 -7.835938 -4.421875 -7.835938 -4.980469 C -7.835938 -5.90625 -7.460938 -6.660156 -6.730469 -7.25 C -5.988281 -7.824219 -5.023438 -8.117188 -3.820312 -8.117188 C -2.617188 -8.117188 -1.636719 -7.824219 -0.910156 -7.25 C -0.183594 -6.660156 0.183594 -5.90625 0.183594 -4.980469 C 0.183594 -4.421875 0.0703125 -3.933594 -0.140625 -3.527344 C -0.351562 -3.121094 -0.6875 -2.785156 -1.148438 -2.53125 Z M -3.820312 -6.816406 C -4.746094 -6.816406 -5.457031 -6.621094 -5.988281 -6.242188 C -6.523438 -5.851562 -6.789062 -5.332031 -6.789062 -4.675781 C -6.789062 -4.003906 -6.523438 -3.484375 -5.988281 -3.105469 C -5.457031 -2.714844 -4.746094 -2.53125 -3.820312 -2.53125 C -2.898438 -2.53125 -2.167969 -2.714844 -1.636719 -3.105469 C -1.105469 -3.484375 -0.855469 -4.003906 -0.855469 -4.675781 C -0.855469 -5.332031 -1.105469 -5.851562 -1.636719 -6.242188 C -2.167969 -6.621094 -2.898438 -6.816406 -3.820312 -6.816406 Z M -3.820312 -6.816406 "/>
</g>
<g id="glyph-3-3">
<path d="M -6.773438 -4.28125 C -6.773438 -3.609375 -6.507812 -3.078125 -5.976562 -2.6875 C -5.445312 -2.296875 -4.730469 -2.097656 -3.820312 -2.097656 C -2.898438 -2.097656 -2.183594 -2.28125 -1.652344 -2.671875 C -1.121094 -3.066406 -0.867188 -3.597656 -0.867188 -4.28125 C -0.867188 -4.953125 -1.121094 -5.484375 -1.652344 -5.878906 C -2.183594 -6.269531 -2.898438 -6.464844 -3.820312 -6.464844 C -4.714844 -6.464844 -5.445312 -6.269531 -5.976562 -5.878906 C -6.507812 -5.484375 -6.773438 -4.953125 -6.773438 -4.28125 Z M -7.835938 -4.28125 C -7.835938 -5.375 -7.472656 -6.226562 -6.773438 -6.859375 C -6.058594 -7.472656 -5.082031 -7.796875 -3.820312 -7.796875 C -2.5625 -7.796875 -1.582031 -7.472656 -0.882812 -6.859375 C -0.167969 -6.226562 0.183594 -5.375 0.183594 -4.28125 C 0.183594 -3.175781 -0.167969 -2.308594 -0.882812 -1.695312 C -1.582031 -1.078125 -2.5625 -0.769531 -3.820312 -0.769531 C -5.082031 -0.769531 -6.058594 -1.078125 -6.773438 -1.695312 C -7.472656 -2.308594 -7.835938 -3.175781 -7.835938 -4.28125 Z M -7.835938 -4.28125 "/>
</g>
<g id="glyph-3-4">
<path d="M -6.480469 -5.753906 C -6.5625 -5.613281 -6.621094 -5.457031 -6.660156 -5.289062 C -6.691406 -5.121094 -6.71875 -4.941406 -6.71875 -4.746094 C -6.71875 -4.03125 -6.480469 -3.484375 -6.019531 -3.105469 C -5.554688 -2.714844 -4.898438 -2.53125 -4.03125 -2.53125 L 0 -2.53125 L 0 -1.273438 L -7.65625 -1.273438 L -7.65625 -2.53125 L -6.464844 -2.53125 C -6.929688 -2.785156 -7.277344 -3.136719 -7.5 -3.554688 C -7.726562 -3.976562 -7.835938 -4.492188 -7.835938 -5.109375 C -7.835938 -5.191406 -7.824219 -5.289062 -7.824219 -5.402344 C -7.808594 -5.5 -7.796875 -5.613281 -7.765625 -5.753906 Z M -6.480469 -5.753906 "/>
</g>
<g id="glyph-3-5">
<path d="M -9.824219 -2.5625 L -7.65625 -2.5625 L -7.65625 -5.148438 L -6.675781 -5.148438 L -6.675781 -2.5625 L -2.519531 -2.5625 C -1.890625 -2.5625 -1.484375 -2.644531 -1.316406 -2.8125 C -1.132812 -2.980469 -1.050781 -3.332031 -1.050781 -3.863281 L -1.050781 -5.148438 L 0 -5.148438 L 0 -3.863281 C 0 -2.882812 -0.183594 -2.210938 -0.546875 -1.847656 C -0.910156 -1.484375 -1.566406 -1.300781 -2.519531 -1.300781 L -6.675781 -1.300781 L -6.675781 -0.378906 L -7.65625 -0.378906 L -7.65625 -1.300781 L -9.824219 -1.300781 Z M -9.824219 -2.5625 "/>
</g>
<g id="glyph-3-6">
<path d="M -3.847656 -4.800781 C -3.847656 -3.777344 -3.722656 -3.078125 -3.5 -2.6875 C -3.261719 -2.296875 -2.867188 -2.097656 -2.308594 -2.097656 C -1.863281 -2.097656 -1.496094 -2.238281 -1.246094 -2.53125 C -0.980469 -2.828125 -0.855469 -3.234375 -0.855469 -3.738281 C -0.855469 -4.4375 -1.089844 -4.996094 -1.59375 -5.417969 C -2.085938 -5.835938 -2.742188 -6.046875 -3.570312 -6.046875 L -3.847656 -6.046875 Z M -4.367188 -7.304688 L 0 -7.304688 L 0 -6.046875 L -1.160156 -6.046875 C -0.6875 -5.753906 -0.351562 -5.386719 -0.140625 -4.96875 C 0.0703125 -4.546875 0.183594 -4.015625 0.183594 -3.402344 C 0.183594 -2.617188 -0.0273438 -1.988281 -0.460938 -1.527344 C -0.894531 -1.0625 -1.484375 -0.839844 -2.226562 -0.839844 C -3.078125 -0.839844 -3.722656 -1.121094 -4.171875 -1.707031 C -4.605469 -2.28125 -4.828125 -3.136719 -4.828125 -4.28125 L -4.828125 -6.046875 L -4.953125 -6.046875 C -5.527344 -6.046875 -5.976562 -5.851562 -6.296875 -5.472656 C -6.605469 -5.09375 -6.773438 -4.5625 -6.773438 -3.875 C -6.773438 -3.429688 -6.71875 -3.007812 -6.605469 -2.589844 C -6.492188 -2.167969 -6.339844 -1.777344 -6.144531 -1.398438 L -7.304688 -1.398438 C -7.472656 -1.847656 -7.613281 -2.296875 -7.699219 -2.730469 C -7.78125 -3.164062 -7.835938 -3.582031 -7.835938 -4.003906 C -7.835938 -5.109375 -7.542969 -5.933594 -6.96875 -6.480469 C -6.394531 -7.027344 -5.527344 -7.304688 -4.367188 -7.304688 Z M -4.367188 -7.304688 "/>
</g>
<g id="glyph-3-7">
<path d="M -4.617188 -7.683594 L 0 -7.683594 L 0 -6.425781 L -4.578125 -6.425781 C -5.304688 -6.425781 -5.835938 -6.269531 -6.199219 -5.988281 C -6.5625 -5.710938 -6.746094 -5.289062 -6.746094 -4.730469 C -6.746094 -4.042969 -6.523438 -3.511719 -6.089844 -3.121094 C -5.652344 -2.730469 -5.066406 -2.53125 -4.324219 -2.53125 L 0 -2.53125 L 0 -1.273438 L -7.65625 -1.273438 L -7.65625 -2.53125 L -6.464844 -2.53125 C -6.914062 -2.828125 -7.261719 -3.175781 -7.488281 -3.597656 C -7.710938 -4.003906 -7.835938 -4.480469 -7.835938 -5.011719 C -7.835938 -5.878906 -7.558594 -6.550781 -7.011719 -6.996094 C -6.464844 -7.445312 -5.667969 -7.683594 -4.617188 -7.683594 Z M -4.617188 -7.683594 "/>
</g>
<g id="glyph-3-8">
<path d="M -7.363281 -6.828125 L -6.1875 -6.828125 C -6.382812 -6.464844 -6.523438 -6.117188 -6.621094 -5.753906 C -6.71875 -5.386719 -6.773438 -5.039062 -6.773438 -4.675781 C -6.773438 -3.863281 -6.507812 -3.21875 -5.988281 -2.769531 C -5.472656 -2.324219 -4.746094 -2.097656 -3.820312 -2.097656 C -2.882812 -2.097656 -2.15625 -2.324219 -1.636719 -2.769531 C -1.121094 -3.21875 -0.867188 -3.863281 -0.867188 -4.675781 C -0.867188 -5.039062 -0.910156 -5.386719 -1.007812 -5.753906 C -1.105469 -6.117188 -1.257812 -6.464844 -1.457031 -6.828125 L -0.292969 -6.828125 C -0.125 -6.464844 0 -6.101562 0.0703125 -5.738281 C 0.140625 -5.359375 0.183594 -4.953125 0.183594 -4.535156 C 0.183594 -3.386719 -0.167969 -2.464844 -0.894531 -1.792969 C -1.609375 -1.105469 -2.589844 -0.769531 -3.820312 -0.769531 C -5.066406 -0.769531 -6.046875 -1.105469 -6.761719 -1.792969 C -7.472656 -2.476562 -7.835938 -3.414062 -7.835938 -4.617188 C -7.835938 -5.011719 -7.796875 -5.386719 -7.710938 -5.753906 C -7.628906 -6.117188 -7.515625 -6.480469 -7.363281 -6.828125 Z M -7.363281 -6.828125 "/>
</g>
<g id="glyph-3-9">
<path d="M -4.144531 -7.867188 L -3.527344 -7.867188 L -3.527344 -2.085938 C -2.660156 -2.140625 -1.988281 -2.394531 -1.539062 -2.867188 C -1.089844 -3.332031 -0.867188 -3.976562 -0.867188 -4.8125 C -0.867188 -5.289062 -0.921875 -5.765625 -1.035156 -6.214844 C -1.148438 -6.660156 -1.328125 -7.125 -1.582031 -7.570312 L -0.390625 -7.570312 C -0.195312 -7.125 -0.0429688 -6.660156 0.0429688 -6.1875 C 0.125 -5.710938 0.183594 -5.21875 0.183594 -4.746094 C 0.183594 -3.511719 -0.167969 -2.546875 -0.867188 -1.832031 C -1.566406 -1.121094 -2.53125 -0.769531 -3.75 -0.769531 C -4.996094 -0.769531 -5.988281 -1.105469 -6.730469 -1.777344 C -7.460938 -2.449219 -7.835938 -3.371094 -7.835938 -4.519531 C -7.835938 -5.554688 -7.5 -6.367188 -6.84375 -6.96875 C -6.171875 -7.558594 -5.277344 -7.867188 -4.144531 -7.867188 Z M -4.507812 -6.605469 C -5.191406 -6.59375 -5.738281 -6.394531 -6.15625 -6.03125 C -6.5625 -5.652344 -6.773438 -5.148438 -6.773438 -4.535156 C -6.773438 -3.835938 -6.5625 -3.273438 -6.171875 -2.855469 C -5.78125 -2.433594 -5.21875 -2.183594 -4.507812 -2.128906 Z M -4.507812 -6.605469 "/>
</g>
</g>
<clipPath id="clip-0">
<path clip-rule="nonzero" d="M 0.0351562 0 L 568.738281 0 L 568.738281 423.722656 L 0.0351562 423.722656 Z M 0.0351562 0 "/>
</clipPath>
</defs>
<g clip-path="url(#clip-0)">
<path fill-rule="nonzero" fill="rgb(100%, 100%, 100%)" fill-opacity="1" d="M 0.0351562 423.722656 L 568.738281 423.722656 L 568.738281 0 L 0.0351562 0 Z M 0.0351562 423.722656 "/>
</g>
<path fill-rule="nonzero" fill="rgb(100%, 100%, 100%)" fill-opacity="1" d="M 62.402344 364.867188 L 561.542969 364.867188 L 561.542969 7.199219 L 62.402344 7.199219 Z M 62.402344 364.867188 "/>
<path fill-rule="nonzero" fill="rgb(19.459534%, 45.343018%, 63.284302%)" fill-opacity="1" stroke-width="1.25" stroke-linecap="butt" stroke-linejoin="round" stroke="rgb(23.999023%, 23.999023%, 23.999023%)" stroke-opacity="1" stroke-miterlimit="10" d="M 98.097199 120.419703 L 98.003418 120.419703 L 97.976065 122.510226 L 97.929175 124.60075 L 97.870562 126.691273 L 97.792412 128.781797 L 97.694724 130.87232 L 97.573591 132.962844 L 97.440735 135.053367 L 97.292249 137.143891 L 97.135949 139.234414 L 96.97574 141.324938 L 96.819439 143.415461 L 96.670954 145.505985 L 96.545913 147.596509 L 96.448225 149.687032 L 96.385705 151.781463 L 96.362259 153.871987 L 96.381797 155.96251 L 96.436502 158.053034 L 96.522468 160.143557 L 96.631878 162.234081 L 96.86633 166.415128 L 96.971833 168.505651 L 97.049983 170.596175 L 97.089058 172.686699 L 97.089058 174.777222 L 97.034353 176.867746 L 96.932757 178.958269 L 96.788179 181.048793 L 96.612341 183.139316 L 96.42478 185.22984 L 96.241126 187.320363 L 96.084825 189.414794 L 95.955877 191.505318 L 95.862097 193.595841 L 95.780039 195.686365 L 95.690166 197.776889 L 95.55731 199.867412 L 95.346304 201.957936 L 95.033702 204.048459 L 94.59606 206.138983 L 94.021655 208.229506 L 93.310486 210.32003 L 92.466461 212.410553 L 91.509119 214.501077 L 90.461903 216.5916 L 89.344352 218.682124 L 88.179911 220.772647 L 86.976395 222.863171 L 85.725988 224.953695 L 84.401339 227.048126 L 82.971186 229.138649 L 81.40427 231.229173 L 79.677146 233.319696 L 77.809351 235.41022 L 75.859499 237.500743 L 73.944814 239.591267 L 72.205967 241.68179 L 70.799259 243.772314 L 69.873177 245.862837 L 69.5215 247.953361 L 69.779397 250.043885 L 70.611698 252.134408 L 71.93244 254.224932 L 73.608767 256.315455 L 75.507822 258.405979 L 77.520195 260.496502 L 79.556013 262.587026 L 81.552756 264.681457 L 83.486979 266.77198 L 85.323514 268.862504 L 87.042823 270.953027 L 88.621461 273.043551 L 90.032076 275.134075 L 91.25513 277.224598 L 92.290623 279.315122 L 93.14637 281.405645 L 93.841909 283.496169 L 94.412407 285.586692 L 94.881309 287.677216 L 95.268154 289.767739 L 95.592478 291.858263 L 95.862097 293.948786 L 96.084825 296.03931 L 96.272386 298.129834 L 96.436502 300.224265 L 96.584988 302.314788 L 96.889775 306.495835 L 97.049983 308.586359 L 97.214099 310.676882 L 97.374307 312.767406 L 97.526701 314.857929 L 97.659556 316.948453 L 97.768967 319.038976 L 97.85884 321.1295 L 97.925268 323.220024 L 97.972158 325.310547 L 98.003418 327.401071 L 98.097199 327.401071 L 98.132366 325.310547 L 98.179257 323.220024 L 98.245684 321.1295 L 98.33165 319.038976 L 98.444968 316.948453 L 98.577824 314.857929 L 98.730217 312.767406 L 98.890425 310.676882 L 99.054541 308.586359 L 99.21475 306.495835 L 99.367143 304.405312 L 99.515629 302.314788 L 99.668022 300.224265 L 99.82823 298.129834 L 100.015791 296.03931 L 100.242427 293.948786 L 100.512046 291.858263 L 100.832463 289.767739 L 101.223215 287.677216 L 101.692118 285.586692 L 102.258708 283.496169 L 102.958154 281.405645 L 103.813901 279.315122 L 104.849394 277.224598 L 106.072448 275.134075 L 107.483063 273.043551 L 109.061702 270.953027 L 110.781011 268.862504 L 112.617545 266.77198 L 114.54786 264.681457 L 116.548511 262.587026 L 118.584329 260.496502 L 120.592795 258.405979 L 122.495757 256.315455 L 124.172084 254.224932 L 125.492826 252.134408 L 126.325128 250.043885 L 126.583024 247.953361 L 126.231347 245.862837 L 125.305265 243.772314 L 123.898557 241.68179 L 122.159711 239.591267 L 120.241118 237.500743 L 118.295173 235.41022 L 116.427378 233.319696 L 114.700254 231.229173 L 113.129431 229.138649 L 111.703185 227.048126 L 110.378536 224.953695 L 109.128129 222.863171 L 107.924613 220.772647 L 106.760172 218.682124 L 105.642621 216.5916 L 104.595405 214.501077 L 103.638063 212.410553 L 102.794038 210.32003 L 102.078962 208.229506 L 101.504557 206.138983 L 101.066914 204.048459 L 100.75822 201.957936 L 100.547214 199.867412 L 100.414358 197.776889 L 100.324485 195.686365 L 100.242427 193.595841 L 100.144739 191.505318 L 100.019699 189.414794 L 99.863398 187.320363 L 99.679744 185.22984 L 99.492183 183.139316 L 99.316345 181.048793 L 99.167859 178.958269 L 99.066264 176.867746 L 99.015466 174.777222 L 99.011558 172.686699 L 99.054541 170.596175 L 99.132692 168.505651 L 99.238195 166.415128 L 99.472646 162.234081 L 99.582056 160.143557 L 99.668022 158.053034 L 99.722727 155.96251 L 99.742265 153.871987 L 99.71882 151.781463 L 99.656299 149.687032 L 99.558611 147.596509 L 99.429663 145.505985 L 99.285085 143.415461 L 99.128784 141.324938 L 98.968576 139.234414 L 98.812275 137.143891 L 98.663789 135.053367 L 98.527026 132.962844 L 98.4098 130.87232 L 98.312112 128.781797 L 98.233962 126.691273 L 98.171442 124.60075 L 98.128459 122.510226 Z M 98.097199 120.419703 " transform="matrix(0.999675, 0, 0, -0.999675, 0.0362628, 423.724295)"/>
<path fill-rule="nonzero" fill="rgb(88.18512%, 50.538635%, 17.303467%)" fill-opacity="1" stroke-width="1.25" stroke-linecap="butt" stroke-linejoin="round" stroke="rgb(23.999023%, 23.999023%, 23.999023%)" stroke-opacity="1" stroke-miterlimit="10" d="M 169.397728 118.161156 L 169.36256 118.161156 L 169.339115 120.107101 L 169.307855 122.053046 L 169.272687 123.998991 L 169.249242 125.944937 L 169.249242 127.890882 L 169.268779 129.836827 L 169.303947 131.782773 L 169.335207 133.728718 L 169.358652 135.674663 L 169.374283 137.620608 L 169.37819 139.570461 L 169.37819 145.408297 L 169.374283 147.354242 L 169.36256 149.300188 L 169.335207 151.246133 L 169.28441 153.192078 L 169.210167 155.138023 L 169.128109 157.083969 L 169.057773 159.029914 L 169.022606 160.975859 L 169.042143 162.921804 L 169.096849 164.86775 L 169.159369 166.817603 L 169.210167 168.763548 L 169.233612 170.709493 L 169.233612 174.601384 L 169.249242 176.547329 L 169.276595 178.493274 L 169.311762 180.439219 L 169.339115 182.385165 L 169.354745 184.33111 L 169.34693 186.277055 L 169.323485 188.223001 L 169.260964 192.114891 L 169.245334 194.060836 L 169.257057 196.010689 L 169.311762 199.90258 L 169.323485 201.848525 L 169.307855 203.79447 L 169.260964 205.740416 L 169.128109 209.632306 L 169.089034 211.578251 L 169.081218 213.524197 L 169.092941 215.470142 L 169.096849 217.416087 L 169.061681 219.362033 L 168.960085 221.307978 L 168.752987 223.257831 L 168.413032 225.203776 L 167.920685 227.149721 L 167.213424 229.095666 L 166.103688 231.041612 L 164.200725 232.987557 L 160.996558 234.933502 L 156.178585 236.879448 L 150.153189 238.825393 L 144.362243 240.771338 L 140.849382 242.717283 L 141.072111 244.663229 L 144.940556 246.609174 L 150.879987 248.555119 L 156.924922 250.504972 L 161.75071 252.450917 L 165.001767 254.396863 L 166.959435 256.342808 L 168.057448 258.288753 L 168.655299 260.234698 L 168.963993 262.180644 L 169.124201 264.126589 L 169.210167 266.072534 L 169.268779 268.018479 L 169.31567 269.964425 L 169.34693 271.91037 L 169.36256 273.856315 L 169.370375 275.802261 L 169.36256 277.752113 L 169.339115 279.698059 L 169.276595 283.589949 L 169.249242 285.535895 L 169.245334 287.48184 L 169.264872 289.427785 L 169.296132 291.37373 L 169.31567 293.319676 L 169.31567 295.265621 L 169.296132 297.211566 L 169.268779 299.157511 L 169.249242 301.103457 L 169.249242 303.049402 L 169.272687 304.999255 L 169.307855 306.9452 L 169.339115 308.891145 L 169.36256 310.837091 L 169.397728 310.837091 L 169.421173 308.891145 L 169.452433 306.9452 L 169.487601 304.999255 L 169.511046 303.049402 L 169.514953 301.103457 L 169.495416 299.157511 L 169.464156 297.211566 L 169.444618 295.265621 L 169.444618 293.319676 L 169.464156 291.37373 L 169.495416 289.427785 L 169.514953 287.48184 L 169.511046 285.535895 L 169.487601 283.589949 L 169.452433 281.644004 L 169.421173 279.698059 L 169.397728 277.752113 L 169.39382 275.802261 L 169.397728 273.856315 L 169.413358 271.91037 L 169.444618 269.964425 L 169.491508 268.018479 L 169.550121 266.072534 L 169.636086 264.126589 L 169.796295 262.180644 L 170.104989 260.234698 L 170.70284 258.288753 L 171.80476 256.342808 L 173.758521 254.396863 L 177.013485 252.450917 L 181.835366 250.504972 L 187.8803 248.555119 L 193.819732 246.609174 L 197.688177 244.663229 L 197.910906 242.717283 L 194.398045 240.771338 L 188.611007 238.825393 L 182.581702 236.879448 L 177.763729 234.933502 L 174.559562 232.987557 L 172.6566 231.041612 L 171.546864 229.095666 L 170.839603 227.149721 L 170.347255 225.203776 L 170.011208 223.257831 L 169.800202 221.307978 L 169.698607 219.362033 L 169.663439 217.416087 L 169.679069 213.524197 L 169.671254 211.578251 L 169.632179 209.632306 L 169.499323 205.740416 L 169.452433 203.79447 L 169.436803 201.848525 L 169.448525 199.90258 L 169.475878 197.956635 L 169.507138 196.010689 L 169.514953 194.060836 L 169.499323 192.114891 L 169.436803 188.223001 L 169.413358 186.277055 L 169.40945 184.33111 L 169.421173 182.385165 L 169.448525 180.439219 L 169.483693 178.493274 L 169.511046 176.547329 L 169.526676 174.601384 L 169.526676 170.709493 L 169.550121 168.763548 L 169.600919 166.817603 L 169.667347 164.86775 L 169.718144 162.921804 L 169.737682 160.975859 L 169.706422 159.029914 L 169.632179 157.083969 L 169.550121 155.138023 L 169.475878 153.192078 L 169.42508 151.246133 L 169.397728 149.300188 L 169.386005 147.354242 L 169.382098 145.408297 L 169.382098 139.570461 L 169.389913 137.620608 L 169.401635 135.674663 L 169.42508 133.728718 L 169.45634 131.782773 L 169.491508 129.836827 L 169.511046 127.890882 L 169.511046 125.944937 L 169.487601 123.998991 L 169.452433 122.053046 L 169.421173 120.107101 Z M 169.397728 118.161156 " transform="matrix(0.999675, 0, 0, -0.999675, 0.0362628, 423.724295)"/>
<path fill-rule="nonzero" fill="rgb(22.940063%, 57.058716%, 22.940063%)" fill-opacity="1" stroke-width="1.25" stroke-linecap="butt" stroke-linejoin="round" stroke="rgb(23.999023%, 23.999023%, 23.999023%)" stroke-opacity="1" stroke-miterlimit="10" d="M 241.049934 75.139353 L 240.370025 75.139353 L 240.213724 78.425578 L 240.010533 81.711803 L 239.748729 84.998028 L 239.424405 88.284253 L 239.03756 91.56657 L 238.588196 94.852795 L 238.09194 98.13902 L 237.560518 101.425245 L 237.013465 104.71147 L 236.478134 107.993787 L 235.970157 111.280012 L 235.505162 114.566237 L 235.090965 117.852461 L 234.731473 121.138686 L 234.407148 124.421004 L 234.098454 127.707229 L 233.77413 130.993453 L 233.402916 134.279678 L 232.961366 137.565903 L 232.441666 140.84822 L 231.843815 144.134445 L 231.191259 147.42067 L 230.52698 150.706895 L 229.901777 153.99312 L 229.374262 157.275437 L 229.010862 160.561662 L 228.846747 163.847887 L 228.920989 167.134112 L 229.233591 170.420337 L 229.765014 173.702654 L 230.46446 176.988879 L 231.265502 180.275104 L 232.089989 183.561328 L 232.848048 186.847553 L 233.453713 190.129871 L 233.83665 193.416096 L 233.938246 196.70232 L 233.72724 199.988545 L 233.19191 203.27477 L 232.343978 206.557087 L 231.226427 209.843312 L 229.890055 213.129537 L 228.409104 216.415762 L 226.850004 219.701987 L 225.271365 222.984304 L 223.731802 226.270529 L 222.250852 229.556754 L 220.848052 232.842979 L 219.515587 236.129204 L 218.233921 239.411521 L 216.999144 242.697746 L 215.811258 245.983971 L 214.693707 249.270195 L 213.701197 252.55642 L 212.896247 255.838738 L 212.364825 259.124963 L 212.177264 262.411187 L 212.38827 265.697412 L 213.013473 268.983637 L 214.033336 272.265954 L 215.377523 275.552179 L 216.944439 278.838404 L 218.620765 282.124629 L 220.281461 285.410854 L 221.832747 288.693171 L 223.196472 291.979396 L 224.34919 295.265621 L 225.29481 298.551846 L 226.072407 301.838071 L 226.740593 305.120388 L 227.365796 308.406613 L 228.00663 311.692838 L 228.706076 314.979062 L 229.479765 318.26138 L 230.327697 321.547605 L 231.222519 324.83383 L 232.140786 328.120054 L 233.043424 331.406279 L 233.895263 334.688597 L 234.676767 337.974821 L 235.372306 341.261046 L 235.981879 344.547271 L 236.51721 347.833496 L 236.982205 351.115813 L 237.404217 354.402038 L 237.791061 357.688263 L 238.150553 360.974488 L 238.494415 364.260713 L 238.822647 367.54303 L 239.127433 370.829255 L 239.412682 374.11548 L 239.670579 377.401705 L 239.893307 380.687929 L 240.084776 383.970247 L 240.244984 387.256472 L 240.370025 390.542697 L 240.47162 393.828921 L 240.545863 397.115146 L 240.600569 400.397464 L 240.81939 400.397464 L 240.874095 397.115146 L 240.948338 393.828921 L 241.046026 390.542697 L 241.174974 387.256472 L 241.331275 383.970247 L 241.522744 380.687929 L 241.74938 377.401705 L 242.003369 374.11548 L 242.288618 370.829255 L 242.597312 367.54303 L 242.921636 364.260713 L 243.265498 360.974488 L 243.628897 357.688263 L 244.011834 354.402038 L 244.433846 351.115813 L 244.902749 347.833496 L 245.434172 344.547271 L 246.043745 341.261046 L 246.743191 337.974821 L 247.520788 334.688597 L 248.376535 331.406279 L 249.275264 328.120054 L 250.193532 324.83383 L 251.092262 321.547605 L 251.940194 318.26138 L 252.709975 314.979062 L 253.409421 311.692838 L 254.050255 308.406613 L 254.675458 305.120388 L 255.347552 301.838071 L 256.125148 298.551846 L 257.066861 295.265621 L 258.219579 291.979396 L 259.587211 288.693171 L 261.13459 285.410854 L 262.799193 282.124629 L 264.471612 278.838404 L 266.042436 275.552179 L 267.386623 272.265954 L 268.402578 268.983637 L 269.031689 265.697412 L 269.238787 262.411187 L 269.051226 259.124963 L 268.519804 255.838738 L 267.718762 252.55642 L 266.722344 249.270195 L 265.604793 245.983971 L 264.416907 242.697746 L 263.18213 239.411521 L 261.904371 236.129204 L 260.567999 232.842979 L 259.165199 229.556754 L 257.688156 226.270529 L 256.144686 222.984304 L 254.569955 219.701987 L 253.006947 216.415762 L 251.525996 213.129537 L 250.193532 209.843312 L 249.072073 206.557087 L 248.228049 203.27477 L 247.688811 199.988545 L 247.477805 196.70232 L 247.579401 193.416096 L 247.966245 190.129871 L 248.571911 186.847553 L 249.32997 183.561328 L 250.150549 180.275104 L 250.951591 176.988879 L 251.651037 173.702654 L 252.18246 170.420337 L 252.495061 167.134112 L 252.569304 163.847887 L 252.409096 160.561662 L 252.041789 157.275437 L 251.518181 153.99312 L 250.889071 150.706895 L 250.224792 147.42067 L 249.572236 144.134445 L 248.974385 140.84822 L 248.454685 137.565903 L 248.017043 134.279678 L 247.645828 130.993453 L 247.321504 127.707229 L 247.008903 124.421004 L 246.684578 121.138686 L 246.325086 117.852461 L 245.914797 114.566237 L 245.449802 111.280012 L 244.941824 107.993787 L 244.402586 104.71147 L 243.859441 101.425245 L 243.328018 98.13902 L 242.827855 94.852795 L 242.382398 91.56657 L 241.995554 88.284253 L 241.671229 84.998028 L 241.405518 81.711803 L 241.202327 78.425578 Z M 241.049934 75.139353 " transform="matrix(0.999675, 0, 0, -0.999675, 0.0362628, 423.724295)"/>
<path fill-rule="nonzero" fill="rgb(75.341797%, 23.872375%, 24.165344%)" fill-opacity="1" stroke-width="1.25" stroke-linecap="butt" stroke-linejoin="round" stroke="rgb(23.999023%, 23.999023%, 23.999023%)" stroke-opacity="1" stroke-miterlimit="10" d="M 312.053491 231.311231 L 312.022231 231.311231 L 311.994878 231.557404 L 311.959711 231.807486 L 311.924543 232.05366 L 311.91282 232.299833 L 311.932358 232.549915 L 311.967526 232.796088 L 312.002693 233.04617 L 312.022231 233.292344 L 312.033953 233.538517 L 312.037861 233.788599 L 312.037861 234.531028 L 312.033953 234.777201 L 312.030046 235.027283 L 312.014416 235.273457 L 311.983156 235.51963 L 311.94408 235.769712 L 311.916728 236.015885 L 311.916728 236.265967 L 311.94408 236.512141 L 311.979248 236.758314 L 311.998786 237.008396 L 311.998786 237.25457 L 311.963618 237.500743 L 311.901098 237.750825 L 311.815132 237.996998 L 311.721352 238.24708 L 311.639294 238.493254 L 311.608034 238.739427 L 311.635386 238.989509 L 311.690092 239.235682 L 311.697907 239.485764 L 311.608034 239.731938 L 311.432195 239.978111 L 311.225097 240.228193 L 311.060981 240.474367 L 310.975015 240.724448 L 310.947663 240.970622 L 310.95157 241.216795 L 310.932033 241.466877 L 310.607708 241.713051 L 309.197093 241.959224 L 305.418521 242.209306 L 298.455319 242.45548 L 289.764993 242.705561 L 283.505145 242.951735 L 283.638001 243.197908 L 290.089318 243.44799 L 298.822626 243.694164 L 305.7194 243.944245 L 309.365117 244.190419 L 310.576448 244.436592 L 310.658506 244.686674 L 310.486575 244.932848 L 310.43187 245.182929 L 310.545188 245.429103 L 310.760102 245.675277 L 311.006275 245.925358 L 311.256357 246.171532 L 311.475178 246.417705 L 311.647109 246.667787 L 311.752612 246.913961 L 311.80341 247.164042 L 311.826855 247.410216 L 311.842485 247.656389 L 311.869838 247.906471 L 311.901098 248.152645 L 311.920635 248.402726 L 311.920635 248.6489 L 311.908913 248.895074 L 311.908913 249.145155 L 311.932358 249.391329 L 311.971433 249.64141 L 312.002693 249.887584 L 312.026138 250.133758 L 312.033953 250.383839 L 312.037861 250.630013 L 312.037861 253.353555 L 312.033953 253.603636 L 312.022231 253.84981 L 312.002693 254.099891 L 311.932358 254.592239 L 311.91282 254.84232 L 311.924543 255.088494 L 311.959711 255.334668 L 311.994878 255.584749 L 312.022231 255.830923 L 312.053491 255.830923 L 312.076936 255.584749 L 312.116011 255.334668 L 312.147272 255.088494 L 312.162902 254.84232 L 312.143364 254.592239 L 312.073029 254.099891 L 312.053491 253.84981 L 312.041768 253.603636 L 312.037861 253.353555 L 312.037861 250.630013 L 312.041768 250.383839 L 312.049583 250.133758 L 312.069121 249.887584 L 312.104289 249.64141 L 312.143364 249.391329 L 312.166809 249.145155 L 312.162902 248.895074 L 312.151179 248.6489 L 312.151179 248.402726 L 312.174624 248.152645 L 312.205884 247.906471 L 312.229329 247.656389 L 312.248867 247.410216 L 312.272312 247.164042 L 312.32311 246.913961 L 312.428613 246.667787 L 312.596636 246.417705 L 312.819365 246.171532 L 313.31562 245.675277 L 313.526626 245.429103 L 313.643852 245.182929 L 313.589147 244.932848 L 313.417216 244.686674 L 313.499274 244.436592 L 314.710605 244.190419 L 318.356322 243.944245 L 325.253096 243.694164 L 333.986404 243.44799 L 340.433813 243.197908 L 340.570577 242.951735 L 334.310729 242.705561 L 325.616495 242.45548 L 318.657201 242.209306 L 314.878628 241.959224 L 313.468013 241.713051 L 313.143689 241.466877 L 313.120244 241.216795 L 313.128059 240.970622 L 313.100707 240.724448 L 313.010834 240.474367 L 312.850625 240.228193 L 312.643527 239.978111 L 312.467688 239.731938 L 312.377815 239.485764 L 312.38563 239.235682 L 312.440336 238.989509 L 312.467688 238.739427 L 312.436428 238.493254 L 312.35437 238.24708 L 312.26059 237.996998 L 312.174624 237.750825 L 312.112104 237.500743 L 312.076936 237.25457 L 312.073029 237.008396 L 312.096474 236.758314 L 312.131641 236.512141 L 312.158994 236.265967 L 312.158994 236.015885 L 312.127734 235.769712 L 312.092566 235.51963 L 312.061306 235.273457 L 312.045676 235.027283 L 312.037861 234.777201 L 312.037861 233.788599 L 312.041768 233.538517 L 312.053491 233.292344 L 312.073029 233.04617 L 312.108196 232.796088 L 312.143364 232.549915 L 312.162902 232.299833 L 312.147272 232.05366 L 312.116011 231.807486 L 312.076936 231.557404 Z M 312.053491 231.311231 " transform="matrix(0.999675, 0, 0, -0.999675, 0.0362628, 423.724295)"/>
<path fill-rule="nonzero" fill="rgb(57.843018%, 44.607544%, 69.900513%)" fill-opacity="1" stroke-width="1.25" stroke-linecap="butt" stroke-linejoin="round" stroke="rgb(23.999023%, 23.999023%, 23.999023%)" stroke-opacity="1" stroke-miterlimit="10" d="M 383.482968 110.897075 L 383.248517 110.897075 L 383.166459 113.421333 L 383.045326 115.945591 L 382.877303 118.46985 L 382.658481 120.990201 L 382.400585 123.514459 L 382.119244 126.038717 L 381.84181 128.562976 L 381.595636 131.087234 L 381.419797 133.607585 L 381.337739 136.131843 L 381.357277 138.656101 L 381.482318 141.18036 L 381.685509 143.704618 L 381.939498 146.224969 L 382.213024 148.749227 L 382.47092 151.273485 L 382.689742 153.797744 L 382.857765 156.322002 L 382.963268 158.842353 L 383.006251 161.366611 L 382.994528 163.89087 L 382.932008 166.415128 L 382.83432 168.939386 L 382.705372 171.459737 L 382.568608 173.983995 L 382.279452 179.032512 L 382.130966 181.55677 L 381.962943 184.077121 L 381.748029 186.60138 L 381.451057 189.125638 L 381.044675 191.649896 L 380.513253 194.174155 L 379.860697 196.694505 L 379.118268 199.218764 L 378.352394 201.743022 L 377.63341 204.26728 L 377.023837 206.787631 L 376.570564 209.311889 L 376.2775 211.836148 L 376.097754 214.360406 L 375.937546 216.884664 L 375.675742 219.405015 L 375.175579 221.929274 L 374.315925 224.453532 L 373.026443 226.97779 L 371.295411 229.502049 L 369.181443 232.022399 L 366.813485 234.546658 L 364.343932 237.070916 L 361.940807 239.595174 L 359.74478 242.119433 L 357.865263 244.639784 L 356.376498 247.164042 L 355.344912 249.6883 L 354.833027 252.212559 L 354.926807 254.736817 L 355.696589 257.257168 L 357.173632 259.781426 L 359.322768 262.305684 L 362.01505 264.829943 L 365.043378 267.354201 L 368.16158 269.874552 L 371.139111 272.39881 L 373.784502 274.923068 L 375.988344 277.447327 L 377.723283 279.971585 L 379.02058 282.491936 L 379.962292 285.016194 L 380.634386 287.540453 L 381.126733 290.064711 L 381.513578 292.588969 L 381.833995 295.10932 L 382.119244 297.633578 L 382.365417 300.157837 L 382.568608 302.682095 L 382.721002 305.206353 L 382.814782 307.726704 L 382.84995 310.250963 L 382.830412 312.775221 L 382.771799 315.299479 L 382.681926 317.823738 L 382.584238 320.344088 L 382.490458 322.868347 L 382.420123 325.392605 L 382.381047 327.916863 L 382.381047 330.441122 L 382.420123 332.961472 L 382.490458 335.485731 L 382.588146 338.009989 L 382.701464 340.534247 L 382.822597 343.058506 L 382.939823 345.578857 L 383.045326 348.103115 L 383.139106 350.627373 L 383.209442 353.151632 L 383.264147 355.67589 L 383.303222 358.196241 L 383.326667 360.720499 L 383.404818 360.720499 L 383.428263 358.196241 L 383.467338 355.67589 L 383.522043 353.151632 L 383.596286 350.627373 L 383.686159 348.103115 L 383.791662 345.578857 L 383.908888 343.058506 L 384.030021 340.534247 L 384.143339 338.009989 L 384.241027 335.485731 L 384.31527 332.961472 L 384.350438 330.441122 L 384.350438 327.916863 L 384.311363 325.392605 L 384.241027 322.868347 L 384.147247 320.344088 L 384.049559 317.823738 L 383.963593 315.299479 L 383.901073 312.775221 L 383.881535 310.250963 L 383.916703 307.726704 L 384.010484 305.206353 L 384.162877 302.682095 L 384.366068 300.157837 L 384.612242 297.633578 L 384.897491 295.10932 L 385.217907 292.588969 L 385.604752 290.064711 L 386.0971 287.540453 L 386.769193 285.016194 L 387.710906 282.491936 L 389.008202 279.971585 L 390.743142 277.447327 L 392.946983 274.923068 L 395.592375 272.39881 L 398.569905 269.874552 L 401.688107 267.354201 L 404.716435 264.829943 L 407.408717 262.305684 L 409.557853 259.781426 L 411.034896 257.257168 L 411.804678 254.736817 L 411.898458 252.212559 L 411.386573 249.6883 L 410.354988 247.164042 L 408.866222 244.639784 L 406.986705 242.119433 L 404.790678 239.595174 L 402.387553 237.070916 L 399.918 234.546658 L 397.550043 232.022399 L 395.436074 229.502049 L 393.705042 226.97779 L 392.41556 224.453532 L 391.555906 221.929274 L 391.055743 219.405015 L 390.793939 216.884664 L 390.637639 214.360406 L 390.457893 211.836148 L 390.160921 209.311889 L 389.707649 206.787631 L 389.098075 204.26728 L 388.379092 201.743022 L 387.613218 199.218764 L 386.874696 196.694505 L 386.22214 194.174155 L 385.68681 191.649896 L 385.280428 189.125638 L 384.983456 186.60138 L 384.768543 184.077121 L 384.600519 181.55677 L 384.452033 179.032512 L 384.307455 176.508254 L 384.026114 171.459737 L 383.901073 168.939386 L 383.799477 166.415128 L 383.736957 163.89087 L 383.725235 161.366611 L 383.768217 158.842353 L 383.87372 156.322002 L 384.041744 153.797744 L 384.260565 151.273485 L 384.522369 148.749227 L 384.791988 146.224969 L 385.045976 143.704618 L 385.249168 141.18036 L 385.374208 138.656101 L 385.393746 136.131843 L 385.311688 133.607585 L 385.135849 131.087234 L 384.893583 128.562976 L 384.3309 123.514459 L 384.073004 120.990201 L 383.85809 118.46985 L 383.686159 115.945591 L 383.565026 113.421333 Z M 383.482968 110.897075 " transform="matrix(0.999675, 0, 0, -0.999675, 0.0362628, 423.724295)"/>
<path fill-rule="nonzero" fill="rgb(51.715088%, 35.832214%, 32.597351%)" fill-opacity="1" stroke-width="1.25" stroke-linecap="butt" stroke-linejoin="round" stroke="rgb(23.999023%, 23.999023%, 23.999023%)" stroke-opacity="1" stroke-miterlimit="10" d="M 454.787405 151.820538 L 454.599844 151.820538 L 454.517786 153.543755 L 454.396653 155.270879 L 454.232537 156.998003 L 454.044976 158.725127 L 453.86523 160.452251 L 453.724559 162.175468 L 453.662039 163.902592 L 453.689391 165.629716 L 453.794895 167.35684 L 453.951195 169.080057 L 454.123126 170.807181 L 454.287242 172.534305 L 454.424005 174.261429 L 454.529508 175.984646 L 454.599844 177.71177 L 454.642827 179.438894 L 454.670179 181.166018 L 454.681902 182.889235 L 454.685809 184.616359 L 454.681902 186.343483 L 454.670179 188.070607 L 454.646734 189.793824 L 454.603751 191.520948 L 454.533416 193.248072 L 454.427913 194.975196 L 454.295057 196.70232 L 454.142664 198.425537 L 453.986363 200.152661 L 453.853507 201.879785 L 453.759727 203.606909 L 453.728467 205.330126 L 453.751912 207.05725 L 453.822247 208.784374 L 453.908213 210.511498 L 453.986363 212.234715 L 454.025438 213.961839 L 454.009808 215.688963 L 453.923843 217.416087 L 453.751912 219.139304 L 453.4862 220.866428 L 453.107171 222.593552 L 452.591378 224.320676 L 451.938822 226.0478 L 451.129965 227.771017 L 450.125733 229.498141 L 448.832343 231.225265 L 447.089589 232.952389 L 444.721632 234.675606 L 441.615153 236.40273 L 437.85221 238.129854 L 433.796204 239.856978 L 430.064522 241.580195 L 427.348795 243.307319 L 426.164816 245.034443 L 426.661071 246.761567 L 428.614832 248.484784 L 431.56501 250.211908 L 435.003628 251.939032 L 438.543841 253.666156 L 441.919939 255.39328 L 444.956083 257.116497 L 447.523324 258.843621 L 449.543512 260.570745 L 451.004925 262.297869 L 451.981805 264.021086 L 452.595286 265.74821 L 452.98213 267.475334 L 453.255657 269.202458 L 453.4862 270.925675 L 453.708929 272.652799 L 453.919935 274.379923 L 454.119219 276.107047 L 454.287242 277.830264 L 454.424005 279.557388 L 454.525601 281.284512 L 454.595936 283.011636 L 454.638919 284.734853 L 454.662364 286.461977 L 454.666272 288.189101 L 454.658457 289.916225 L 454.638919 291.643349 L 454.611566 293.366566 L 454.549046 296.820814 L 454.529508 298.547938 L 454.517786 300.271155 L 454.517786 301.998279 L 454.525601 305.452527 L 454.525601 307.175744 L 454.517786 310.629992 L 454.525601 312.357116 L 454.541231 314.080333 L 454.568584 315.807457 L 454.631104 319.261705 L 454.654549 320.988829 L 454.674087 322.712046 L 454.717069 322.712046 L 454.732699 320.988829 L 454.756145 319.261705 L 454.818665 315.807457 L 454.846018 314.080333 L 454.865555 312.357116 L 454.869463 310.629992 L 454.869463 308.902868 L 454.865555 307.175744 L 454.865555 303.725403 L 454.869463 301.998279 L 454.869463 300.271155 L 454.861648 298.547938 L 454.838203 296.820814 L 454.81085 295.09369 L 454.77959 293.366566 L 454.752237 291.643349 L 454.732699 289.916225 L 454.724884 288.189101 L 454.728792 286.461977 L 454.74833 284.734853 L 454.791312 283.011636 L 454.861648 281.284512 L 454.963243 279.557388 L 455.100006 277.830264 L 455.271937 276.107047 L 455.467313 274.379923 L 455.682227 272.652799 L 455.901048 270.925675 L 456.135499 269.202458 L 456.409026 267.475334 L 456.79587 265.74821 L 457.409351 264.021086 L 458.386231 262.297869 L 459.847644 260.570745 L 461.867832 258.843621 L 464.431166 257.116497 L 467.467309 255.39328 L 470.843407 253.666156 L 474.387528 251.939032 L 477.826146 250.211908 L 480.772417 248.484784 L 482.726177 246.761567 L 483.22634 245.034443 L 482.038454 243.307319 L 479.322727 241.580195 L 475.591045 239.856978 L 471.538946 238.129854 L 467.776003 236.40273 L 464.665617 234.675606 L 462.297659 232.952389 L 460.554905 231.225265 L 459.261516 229.498141 L 458.257283 227.771017 L 457.448426 226.0478 L 456.79587 224.320676 L 456.283985 222.593552 L 455.901048 220.866428 L 455.635337 219.139304 L 455.467313 217.416087 L 455.381348 215.688963 L 455.36181 213.961839 L 455.400886 212.234715 L 455.479036 210.511498 L 455.568909 208.784374 L 455.635337 207.05725 L 455.662689 205.330126 L 455.627522 203.606909 L 455.537649 201.879785 L 455.400886 200.152661 L 455.244585 198.425537 L 455.092191 196.70232 L 454.959336 194.975196 L 454.85774 193.248072 L 454.787405 191.520948 L 454.744422 189.793824 L 454.717069 188.070607 L 454.705347 186.343483 L 454.705347 184.616359 L 454.709254 182.889235 L 454.720977 181.166018 L 454.744422 179.438894 L 454.791312 177.71177 L 454.861648 175.984646 L 454.963243 174.261429 L 455.100006 172.534305 L 455.264122 170.807181 L 455.439961 169.080057 L 455.596262 167.35684 L 455.701765 165.629716 L 455.72521 163.902592 L 455.662689 162.175468 L 455.525926 160.452251 L 455.342273 158.725127 L 455.154712 156.998003 L 454.994503 155.270879 L 454.869463 153.543755 Z M 454.787405 151.820538 " transform="matrix(0.999675, 0, 0, -0.999675, 0.0362628, 423.724295)"/>
<path fill-rule="nonzero" fill="rgb(83.724976%, 51.960754%, 74.01886%)" fill-opacity="1" stroke-width="1.25" stroke-linecap="butt" stroke-linejoin="round" stroke="rgb(23.999023%, 23.999023%, 23.999023%)" stroke-opacity="1" stroke-miterlimit="10" d="M 526.052766 143.579577 L 525.994153 143.579577 L 525.974616 145.349684 L 525.943356 147.119791 L 525.90428 148.889898 L 525.865205 150.656097 L 525.833945 152.426204 L 525.814407 154.196311 L 525.814407 155.966418 L 525.82613 157.732617 L 525.84176 159.502724 L 525.845668 161.272831 L 525.82613 163.042938 L 525.771425 164.809137 L 525.685459 166.579244 L 525.474453 170.119457 L 525.388488 171.885657 L 525.333782 173.655764 L 525.318152 175.425871 L 525.341597 177.195977 L 525.388488 178.962177 L 525.4471 180.732284 L 525.497898 182.50239 L 525.536973 184.272497 L 525.552603 186.038697 L 525.544788 187.808803 L 525.517436 189.57891 L 525.470546 191.349017 L 525.408025 193.115216 L 525.329875 194.885323 L 525.236094 196.65543 L 525.130591 198.425537 L 525.017273 200.191736 L 524.775007 203.73195 L 524.649966 205.502057 L 524.528833 207.268256 L 524.399885 209.038363 L 524.255307 210.80847 L 524.102913 212.578577 L 523.930982 214.344776 L 523.727791 216.114883 L 523.485525 217.88499 L 523.169016 219.655097 L 522.747004 221.421296 L 522.168691 223.191403 L 521.355926 224.96151 L 520.218838 226.731616 L 518.667552 228.497816 L 516.659087 230.267923 L 514.201256 232.038029 L 511.380026 233.808136 L 508.328253 235.574336 L 505.237404 237.344443 L 502.330208 239.114549 L 499.888008 240.884656 L 498.196052 242.650856 L 497.492698 244.420962 L 497.879542 246.191069 L 499.290157 247.961176 L 501.478369 249.727375 L 504.12376 251.497482 L 506.8981 253.267589 L 509.566937 255.037696 L 511.997414 256.803895 L 514.158273 258.574002 L 516.065143 260.344109 L 517.7571 262.114216 L 519.25368 263.880415 L 520.554885 265.650522 L 521.645083 267.420629 L 522.508645 269.190736 L 523.153386 270.956935 L 523.606658 272.727042 L 523.923167 274.497149 L 524.165434 276.267256 L 524.388162 278.033455 L 524.614799 279.803562 L 525.091516 283.343775 L 525.310337 285.109975 L 525.497898 286.880082 L 525.650292 288.650188 L 525.767517 290.420295 L 525.853483 292.186495 L 525.908188 293.956601 L 525.943356 295.726708 L 525.951171 297.496815 L 525.939448 299.263014 L 525.912095 301.033121 L 525.876928 302.803228 L 525.845668 304.573335 L 525.822222 306.343442 L 525.818315 308.109641 L 525.833945 309.879748 L 525.865205 311.649855 L 525.90428 313.419962 L 525.943356 315.186161 L 525.974616 316.956268 L 525.994153 318.726375 L 526.052766 318.726375 L 526.072304 316.956268 L 526.103564 315.186161 L 526.142639 313.419962 L 526.181714 311.649855 L 526.212974 309.879748 L 526.228605 308.109641 L 526.224697 306.343442 L 526.201252 304.573335 L 526.130917 301.033121 L 526.107471 299.263014 L 526.095749 297.496815 L 526.103564 295.726708 L 526.134824 293.956601 L 526.193437 292.186495 L 526.279402 290.420295 L 526.396628 288.650188 L 526.549021 286.880082 L 526.736582 285.109975 L 526.955403 283.343775 L 527.189855 281.573669 L 527.428213 279.803562 L 527.658757 278.033455 L 527.877578 276.267256 L 528.123752 274.497149 L 528.440261 272.727042 L 528.893534 270.956935 L 529.538275 269.190736 L 530.401837 267.420629 L 531.492035 265.650522 L 532.793239 263.880415 L 534.28982 262.114216 L 535.981776 260.344109 L 537.888646 258.574002 L 540.049505 256.803895 L 542.479983 255.037696 L 545.148819 253.267589 L 547.923159 251.497482 L 550.568551 249.727375 L 552.756762 247.961176 L 554.167377 246.191069 L 554.554222 244.420962 L 553.850868 242.650856 L 552.158911 240.884656 L 549.716711 239.114549 L 546.809516 237.344443 L 543.714759 235.574336 L 540.666893 233.808136 L 537.845663 232.038029 L 535.387833 230.267923 L 533.379367 228.497816 L 531.828082 226.731616 L 530.690993 224.96151 L 529.878229 223.191403 L 529.299916 221.421296 L 528.877904 219.655097 L 528.561394 217.88499 L 528.315221 216.114883 L 528.115937 214.344776 L 527.944006 212.578577 L 527.791613 210.80847 L 527.647035 209.038363 L 527.518086 207.268256 L 527.393046 205.502057 L 527.029646 200.191736 L 526.916328 198.425537 L 526.810825 196.65543 L 526.717045 194.885323 L 526.638894 193.115216 L 526.576374 191.349017 L 526.529484 189.57891 L 526.502131 187.808803 L 526.494316 186.038697 L 526.509946 184.272497 L 526.549021 182.50239 L 526.599819 180.732284 L 526.658432 178.962177 L 526.705322 177.195977 L 526.728767 175.425871 L 526.713137 173.655764 L 526.658432 171.885657 L 526.572466 170.119457 L 526.36146 166.579244 L 526.275495 164.809137 L 526.22079 163.042938 L 526.201252 161.272831 L 526.201252 159.502724 L 526.216882 157.732617 L 526.232512 155.966418 L 526.232512 154.196311 L 526.212974 152.426204 L 526.181714 150.656097 L 526.142639 148.889898 L 526.103564 147.119791 L 526.072304 145.349684 Z M 526.052766 143.579577 " transform="matrix(0.999675, 0, 0, -0.999675, 0.0362628, 423.724295)"/>
<path fill="none" stroke-width="0.8" stroke-linecap="butt" stroke-linejoin="round" stroke="rgb(0%, 0%, 0%)" stroke-opacity="1" stroke-miterlimit="10" d="M 98.050308 58.876253 L 98.050308 55.379022 " transform="matrix(0.999675, 0, 0, -0.999675, 0.0362628, 423.724295)"/>
<g fill="rgb(0%, 0%, 0%)" fill-opacity="1">
<use xlink:href="#glyph-0-0" x="73.048674" y="381.734828"/>
<use xlink:href="#glyph-0-1" x="81.30099" y="381.734828"/>
</g>
<g fill="rgb(0%, 0%, 0%)" fill-opacity="1">
<use xlink:href="#glyph-0-2" x="86.361094" y="381.734828"/>
<use xlink:href="#glyph-0-3" x="94.314506" y="381.734828"/>
<use xlink:href="#glyph-0-4" x="102.566822" y="381.734828"/>
<use xlink:href="#glyph-0-5" x="110.806142" y="381.734828"/>
<use xlink:href="#glyph-0-6" x="117.953817" y="381.734828"/>
</g>
<g fill="rgb(0%, 0%, 0%)" fill-opacity="1">
<use xlink:href="#glyph-0-7" x="82.076987" y="396.283221"/>
<use xlink:href="#glyph-0-6" x="88.847785" y="396.283221"/>
<use xlink:href="#glyph-0-8" x="93.942128" y="396.283221"/>
<use xlink:href="#glyph-0-1" x="101.908536" y="396.283221"/>
<use xlink:href="#glyph-0-7" x="107.249799" y="396.283221"/>
</g>
<path fill="none" stroke-width="0.8" stroke-linecap="butt" stroke-linejoin="round" stroke="rgb(0%, 0%, 0%)" stroke-opacity="1" stroke-miterlimit="10" d="M 169.382098 58.876253 L 169.382098 55.379022 " transform="matrix(0.999675, 0, 0, -0.999675, 0.0362628, 423.724295)"/>
<g fill="rgb(0%, 0%, 0%)" fill-opacity="1">
<use xlink:href="#glyph-0-0" x="144.354051" y="381.734828"/>
<use xlink:href="#glyph-0-1" x="152.606367" y="381.734828"/>
</g>
<g fill="rgb(0%, 0%, 0%)" fill-opacity="1">
<use xlink:href="#glyph-0-2" x="157.666471" y="381.734828"/>
<use xlink:href="#glyph-0-3" x="165.619883" y="381.734828"/>
<use xlink:href="#glyph-0-4" x="173.872199" y="381.734828"/>
<use xlink:href="#glyph-0-5" x="182.111519" y="381.734828"/>
<use xlink:href="#glyph-0-6" x="189.259194" y="381.734828"/>
</g>
<g fill="rgb(0%, 0%, 0%)" fill-opacity="1">
<use xlink:href="#glyph-0-1" x="144.46339" y="396.283221"/>
</g>
<g fill="rgb(0%, 0%, 0%)" fill-opacity="1">
<use xlink:href="#glyph-0-9" x="149.523494" y="396.283221"/>
<use xlink:href="#glyph-0-10" x="157.515895" y="396.283221"/>
<use xlink:href="#glyph-0-11" x="165.209392" y="396.283221"/>
<use xlink:href="#glyph-0-9" x="168.822217" y="396.283221"/>
<use xlink:href="#glyph-0-12" x="176.814617" y="396.283221"/>
<use xlink:href="#glyph-0-7" x="187.445159" y="396.283221"/>
</g>
<path fill="none" stroke-width="0.8" stroke-linecap="butt" stroke-linejoin="round" stroke="rgb(0%, 0%, 0%)" stroke-opacity="1" stroke-miterlimit="10" d="M 240.709979 58.876253 L 240.709979 55.379022 " transform="matrix(0.999675, 0, 0, -0.999675, 0.0362628, 423.724295)"/>
<g fill="rgb(0%, 0%, 0%)" fill-opacity="1">
<use xlink:href="#glyph-0-13" x="214.386405" y="381.734828"/>
<use xlink:href="#glyph-0-1" x="222.63872" y="381.734828"/>
<use xlink:href="#glyph-0-8" x="227.979983" y="381.734828"/>
<use xlink:href="#glyph-0-14" x="235.946391" y="381.734828"/>
<use xlink:href="#glyph-0-3" x="244.185711" y="381.734828"/>
<use xlink:href="#glyph-0-15" x="252.438027" y="381.734828"/>
<use xlink:href="#glyph-0-11" x="256.570683" y="381.734828"/>
<use xlink:href="#glyph-0-7" x="260.183508" y="381.734828"/>
</g>
<g fill="rgb(0%, 0%, 0%)" fill-opacity="1">
<use xlink:href="#glyph-0-8" x="214.862812" y="396.283221"/>
<use xlink:href="#glyph-0-16" x="222.829221" y="396.283221"/>
<use xlink:href="#glyph-0-8" x="235.487103" y="396.283221"/>
<use xlink:href="#glyph-0-17" x="243.453512" y="396.283221"/>
<use xlink:href="#glyph-0-2" x="250.276293" y="396.283221"/>
<use xlink:href="#glyph-0-14" x="258.229706" y="396.283221"/>
</g>
<path fill="none" stroke-width="0.8" stroke-linecap="butt" stroke-linejoin="round" stroke="rgb(0%, 0%, 0%)" stroke-opacity="1" stroke-miterlimit="10" d="M 312.037861 58.876253 L 312.037861 55.379022 " transform="matrix(0.999675, 0, 0, -0.999675, 0.0362628, 423.724295)"/>
<g fill="rgb(0%, 0%, 0%)" fill-opacity="1">
<use xlink:href="#glyph-0-7" x="286.293148" y="381.734828"/>
<use xlink:href="#glyph-0-18" x="293.063946" y="381.734828"/>
<use xlink:href="#glyph-0-11" x="301.303266" y="381.734828"/>
<use xlink:href="#glyph-0-0" x="304.916091" y="381.734828"/>
<use xlink:href="#glyph-0-0" x="313.168406" y="381.734828"/>
<use xlink:href="#glyph-0-9" x="321.420722" y="381.734828"/>
<use xlink:href="#glyph-0-3" x="329.413122" y="381.734828"/>
</g>
<g fill="rgb(0%, 0%, 0%)" fill-opacity="1">
<use xlink:href="#glyph-0-13" x="276.132391" y="396.283221"/>
<use xlink:href="#glyph-0-19" x="284.384707" y="396.283221"/>
<use xlink:href="#glyph-0-15" x="292.078204" y="396.283221"/>
<use xlink:href="#glyph-0-8" x="296.21086" y="396.283221"/>
<use xlink:href="#glyph-0-16" x="304.177269" y="396.283221"/>
<use xlink:href="#glyph-0-8" x="316.835151" y="396.283221"/>
<use xlink:href="#glyph-0-17" x="324.80156" y="396.283221"/>
<use xlink:href="#glyph-0-2" x="331.62434" y="396.283221"/>
<use xlink:href="#glyph-0-14" x="339.577753" y="396.283221"/>
</g>
<path fill="none" stroke-width="0.8" stroke-linecap="butt" stroke-linejoin="round" stroke="rgb(0%, 0%, 0%)" stroke-opacity="1" stroke-miterlimit="10" d="M 383.365743 58.876253 L 383.365743 55.379022 " transform="matrix(0.999675, 0, 0, -0.999675, 0.0362628, 423.724295)"/>
<g fill="rgb(0%, 0%, 0%)" fill-opacity="1">
<use xlink:href="#glyph-0-7" x="359.949323" y="381.734828"/>
<use xlink:href="#glyph-0-2" x="366.720121" y="381.734828"/>
<use xlink:href="#glyph-0-20" x="374.673534" y="381.734828"/>
<use xlink:href="#glyph-0-3" x="378.286359" y="381.734828"/>
<use xlink:href="#glyph-0-15" x="386.538674" y="381.734828"/>
<use xlink:href="#glyph-0-13" x="390.67133" y="381.734828"/>
<use xlink:href="#glyph-0-19" x="398.923646" y="381.734828"/>
</g>
<g fill="rgb(0%, 0%, 0%)" fill-opacity="1">
<use xlink:href="#glyph-0-8" x="357.473566" y="396.283221"/>
<use xlink:href="#glyph-0-16" x="365.439975" y="396.283221"/>
<use xlink:href="#glyph-0-8" x="378.097857" y="396.283221"/>
<use xlink:href="#glyph-0-17" x="386.064266" y="396.283221"/>
<use xlink:href="#glyph-0-2" x="392.887047" y="396.283221"/>
<use xlink:href="#glyph-0-14" x="400.84046" y="396.283221"/>
</g>
<path fill="none" stroke-width="0.8" stroke-linecap="butt" stroke-linejoin="round" stroke="rgb(0%, 0%, 0%)" stroke-opacity="1" stroke-miterlimit="10" d="M 454.693624 58.876253 L 454.693624 55.379022 " transform="matrix(0.999675, 0, 0, -0.999675, 0.0362628, 423.724295)"/>
<g fill="rgb(0%, 0%, 0%)" fill-opacity="1">
<use xlink:href="#glyph-0-6" x="443.938075" y="381.734828"/>
<use xlink:href="#glyph-0-2" x="449.032418" y="381.734828"/>
<use xlink:href="#glyph-0-0" x="456.98583" y="381.734828"/>
</g>
<g fill="rgb(0%, 0%, 0%)" fill-opacity="1">
<use xlink:href="#glyph-0-5" x="432.184085" y="396.283221"/>
<use xlink:href="#glyph-0-20" x="439.33176" y="396.283221"/>
<use xlink:href="#glyph-0-11" x="442.944585" y="396.283221"/>
<use xlink:href="#glyph-0-5" x="446.55741" y="396.283221"/>
<use xlink:href="#glyph-0-21" x="453.705085" y="396.283221"/>
</g>
<g fill="rgb(0%, 0%, 0%)" fill-opacity="1">
<use xlink:href="#glyph-0-9" x="460.77666" y="396.283221"/>
<use xlink:href="#glyph-0-3" x="468.76906" y="396.283221"/>
</g>
<path fill="none" stroke-width="0.8" stroke-linecap="butt" stroke-linejoin="round" stroke="rgb(0%, 0%, 0%)" stroke-opacity="1" stroke-miterlimit="10" d="M 526.021506 58.876253 L 526.021506 55.379022 " transform="matrix(0.999675, 0, 0, -0.999675, 0.0362628, 423.724295)"/>
<g fill="rgb(0%, 0%, 0%)" fill-opacity="1">
<use xlink:href="#glyph-0-1" x="500.685687" y="381.734828"/>
<use xlink:href="#glyph-0-8" x="506.02695" y="381.734828"/>
<use xlink:href="#glyph-0-14" x="513.993358" y="381.734828"/>
<use xlink:href="#glyph-0-3" x="522.232678" y="381.734828"/>
<use xlink:href="#glyph-0-2" x="530.484994" y="381.734828"/>
<use xlink:href="#glyph-0-16" x="538.438407" y="381.734828"/>
</g>
<g fill="rgb(0%, 0%, 0%)" fill-opacity="1">
<use xlink:href="#glyph-0-14" x="508.604986" y="396.283221"/>
<use xlink:href="#glyph-0-2" x="516.844306" y="396.283221"/>
<use xlink:href="#glyph-0-11" x="524.797719" y="396.283221"/>
<use xlink:href="#glyph-0-7" x="528.410544" y="396.283221"/>
<use xlink:href="#glyph-0-9" x="535.181341" y="396.283221"/>
</g>
<g fill="rgb(0%, 0%, 0%)" fill-opacity="1">
<use xlink:href="#glyph-1-0" x="262.636781" y="413.621331"/>
</g>
<g fill="rgb(0%, 0%, 0%)" fill-opacity="1">
<use xlink:href="#glyph-1-1" x="269.918787" y="413.621331"/>
<use xlink:href="#glyph-1-2" x="278.525987" y="413.621331"/>
<use xlink:href="#glyph-1-3" x="287.105197" y="413.621331"/>
<use xlink:href="#glyph-1-4" x="292.591412" y="413.621331"/>
<use xlink:href="#glyph-1-5" x="301.464526" y="413.621331"/>
</g>
<g fill="rgb(0%, 0%, 0%)" fill-opacity="1">
<use xlink:href="#glyph-1-1" x="306.919876" y="413.621331"/>
<use xlink:href="#glyph-1-6" x="315.527077" y="413.621331"/>
<use xlink:href="#glyph-1-7" x="319.977629" y="413.621331"/>
<use xlink:href="#glyph-1-2" x="330.446224" y="413.621331"/>
<use xlink:href="#glyph-1-8" x="339.025433" y="413.621331"/>
<use xlink:href="#glyph-1-1" x="352.656999" y="413.621331"/>
</g>
<path fill="none" stroke-width="0.8" stroke-linecap="butt" stroke-linejoin="round" stroke="rgb(0%, 0%, 0%)" stroke-opacity="1" stroke-miterlimit="10" d="M 62.386368 99.16279 L 58.889137 99.16279 " transform="matrix(0.999675, 0, 0, -0.999675, 0.0362628, 423.724295)"/>
<g fill="rgb(0%, 0%, 0%)" fill-opacity="1">
<use xlink:href="#glyph-2-0" x="33.151272" y="328.389237"/>
<use xlink:href="#glyph-2-1" x="39.509204" y="328.389237"/>
<use xlink:href="#glyph-2-2" x="42.68817" y="328.389237"/>
<use xlink:href="#glyph-2-3" x="49.046102" y="328.389237"/>
</g>
<path fill-rule="nonzero" fill="rgb(0%, 0%, 0%)" fill-opacity="1" d="M 25.835938 324.839844 L 32.09375 324.839844 L 32.09375 325.671875 L 25.835938 325.671875 Z M 25.835938 324.839844 "/>
<path fill="none" stroke-width="0.8" stroke-linecap="butt" stroke-linejoin="round" stroke="rgb(0%, 0%, 0%)" stroke-opacity="1" stroke-miterlimit="10" d="M 62.386368 147.151051 L 58.889137 147.151051 " transform="matrix(0.999675, 0, 0, -0.999675, 0.0362628, 423.724295)"/>
<g fill="rgb(0%, 0%, 0%)" fill-opacity="1">
<use xlink:href="#glyph-2-0" x="33.151272" y="280.415813"/>
<use xlink:href="#glyph-2-1" x="39.509204" y="280.415813"/>
<use xlink:href="#glyph-2-3" x="42.68817" y="280.415813"/>
<use xlink:href="#glyph-2-0" x="49.046102" y="280.415813"/>
</g>
<path fill-rule="nonzero" fill="rgb(0%, 0%, 0%)" fill-opacity="1" d="M 25.835938 276.867188 L 32.09375 276.867188 L 32.09375 277.695312 L 25.835938 277.695312 Z M 25.835938 276.867188 "/>
<path fill="none" stroke-width="0.8" stroke-linecap="butt" stroke-linejoin="round" stroke="rgb(0%, 0%, 0%)" stroke-opacity="1" stroke-miterlimit="10" d="M 62.386368 195.139312 L 58.889137 195.139312 " transform="matrix(0.999675, 0, 0, -0.999675, 0.0362628, 423.724295)"/>
<g fill="rgb(0%, 0%, 0%)" fill-opacity="1">
<use xlink:href="#glyph-2-0" x="33.151272" y="232.442389"/>
<use xlink:href="#glyph-2-1" x="39.509204" y="232.442389"/>
<use xlink:href="#glyph-2-4" x="42.68817" y="232.442389"/>
<use xlink:href="#glyph-2-3" x="49.046102" y="232.442389"/>
</g>
<path fill-rule="nonzero" fill="rgb(0%, 0%, 0%)" fill-opacity="1" d="M 25.835938 228.894531 L 32.09375 228.894531 L 32.09375 229.722656 L 25.835938 229.722656 Z M 25.835938 228.894531 "/>
<path fill="none" stroke-width="0.8" stroke-linecap="butt" stroke-linejoin="round" stroke="rgb(0%, 0%, 0%)" stroke-opacity="1" stroke-miterlimit="10" d="M 62.386368 243.131481 L 58.889137 243.131481 " transform="matrix(0.999675, 0, 0, -0.999675, 0.0362628, 423.724295)"/>
<g fill="rgb(0%, 0%, 0%)" fill-opacity="1">
<use xlink:href="#glyph-2-0" x="33.147367" y="184.468965"/>
<use xlink:href="#glyph-2-1" x="39.505299" y="184.468965"/>
<use xlink:href="#glyph-2-0" x="42.684265" y="184.468965"/>
<use xlink:href="#glyph-2-0" x="49.042197" y="184.468965"/>
</g>
<path fill="none" stroke-width="0.8" stroke-linecap="butt" stroke-linejoin="round" stroke="rgb(0%, 0%, 0%)" stroke-opacity="1" stroke-miterlimit="10" d="M 62.386368 291.119741 L 58.889137 291.119741 " transform="matrix(0.999675, 0, 0, -0.999675, 0.0362628, 423.724295)"/>
<g fill="rgb(0%, 0%, 0%)" fill-opacity="1">
<use xlink:href="#glyph-2-0" x="33.147367" y="136.495541"/>
<use xlink:href="#glyph-2-1" x="39.505299" y="136.495541"/>
<use xlink:href="#glyph-2-4" x="42.684265" y="136.495541"/>
<use xlink:href="#glyph-2-3" x="49.042197" y="136.495541"/>
</g>
<path fill="none" stroke-width="0.8" stroke-linecap="butt" stroke-linejoin="round" stroke="rgb(0%, 0%, 0%)" stroke-opacity="1" stroke-miterlimit="10" d="M 62.386368 339.108002 L 58.889137 339.108002 " transform="matrix(0.999675, 0, 0, -0.999675, 0.0362628, 423.724295)"/>
<g fill="rgb(0%, 0%, 0%)" fill-opacity="1">
<use xlink:href="#glyph-2-0" x="33.147367" y="88.522117"/>
<use xlink:href="#glyph-2-1" x="39.505299" y="88.522117"/>
<use xlink:href="#glyph-2-3" x="42.684265" y="88.522117"/>
<use xlink:href="#glyph-2-0" x="49.042197" y="88.522117"/>
</g>
<path fill="none" stroke-width="0.8" stroke-linecap="butt" stroke-linejoin="round" stroke="rgb(0%, 0%, 0%)" stroke-opacity="1" stroke-miterlimit="10" d="M 62.386368 387.096263 L 58.889137 387.096263 " transform="matrix(0.999675, 0, 0, -0.999675, 0.0362628, 423.724295)"/>
<g fill="rgb(0%, 0%, 0%)" fill-opacity="1">
<use xlink:href="#glyph-2-0" x="33.147367" y="40.548693"/>
<use xlink:href="#glyph-2-1" x="39.505299" y="40.548693"/>
<use xlink:href="#glyph-2-2" x="42.684265" y="40.548693"/>
<use xlink:href="#glyph-2-3" x="49.042197" y="40.548693"/>
</g>
<g fill="rgb(0%, 0%, 0%)" fill-opacity="1">
<use xlink:href="#glyph-3-0" x="17.871086" y="226.12782"/>
<use xlink:href="#glyph-3-1" x="17.871086" y="221.999163"/>
<use xlink:href="#glyph-3-2" x="17.871086" y="208.367597"/>
<use xlink:href="#glyph-3-3" x="17.871086" y="199.480487"/>
<use xlink:href="#glyph-3-4" x="17.871086" y="190.915274"/>
<use xlink:href="#glyph-3-5" x="17.871086" y="185.163145"/>
<use xlink:href="#glyph-3-6" x="17.871086" y="179.676929"/>
<use xlink:href="#glyph-3-7" x="17.871086" y="171.09772"/>
<use xlink:href="#glyph-3-8" x="17.871086" y="162.224606"/>
<use xlink:href="#glyph-3-9" x="17.871086" y="154.52711"/>
</g>
<path fill="none" stroke-width="1.875" stroke-linecap="square" stroke-linejoin="round" stroke="rgb(23.999023%, 23.999023%, 23.999023%)" stroke-opacity="1" stroke-miterlimit="10" d="M 98.050308 202.333058 L 98.050308 292.518634 " transform="matrix(0.999675, 0, 0, -0.999675, 0.0362628, 423.724295)"/>
<path fill="none" stroke-width="5.625" stroke-linecap="square" stroke-linejoin="round" stroke="rgb(23.999023%, 23.999023%, 23.999023%)" stroke-opacity="1" stroke-miterlimit="10" d="M 98.050308 232.264666 L 98.050308 257.096959 " transform="matrix(0.999675, 0, 0, -0.999675, 0.0362628, 423.724295)"/>
<path fill="none" stroke-width="1.125" stroke-linecap="butt" stroke-linejoin="round" stroke="rgb(100%, 100%, 100%)" stroke-opacity="1" stroke-miterlimit="10" d="M 100.394821 246.042583 L 95.709704 246.042583 " transform="matrix(0.999675, 0, 0, -0.999675, 0.0362628, 423.724295)"/>
<path fill="none" stroke-width="1.875" stroke-linecap="square" stroke-linejoin="round" stroke="rgb(23.999023%, 23.999023%, 23.999023%)" stroke-opacity="1" stroke-miterlimit="10" d="M 169.382098 237.371795 L 169.382098 249.922751 " transform="matrix(0.999675, 0, 0, -0.999675, 0.0362628, 423.724295)"/>
<path fill="none" stroke-width="5.625" stroke-linecap="square" stroke-linejoin="round" stroke="rgb(23.999023%, 23.999023%, 23.999023%)" stroke-opacity="1" stroke-miterlimit="10" d="M 169.382098 241.849814 L 169.382098 245.096963 " transform="matrix(0.999675, 0, 0, -0.999675, 0.0362628, 423.724295)"/>
<path fill="none" stroke-width="1.125" stroke-linecap="butt" stroke-linejoin="round" stroke="rgb(100%, 100%, 100%)" stroke-opacity="1" stroke-miterlimit="10" d="M 171.722702 243.424545 L 167.037585 243.424545 " transform="matrix(0.999675, 0, 0, -0.999675, 0.0362628, 423.724295)"/>
<path fill="none" stroke-width="1.875" stroke-linecap="square" stroke-linejoin="round" stroke="rgb(23.999023%, 23.999023%, 23.999023%)" stroke-opacity="1" stroke-miterlimit="10" d="M 240.709979 150.183287 L 240.709979 342.030828 " transform="matrix(0.999675, 0, 0, -0.999675, 0.0362628, 423.724295)"/>
<path fill="none" stroke-width="5.625" stroke-linecap="square" stroke-linejoin="round" stroke="rgb(23.999023%, 23.999023%, 23.999023%)" stroke-opacity="1" stroke-miterlimit="10" d="M 240.709979 221.593227 L 240.709979 270.183246 " transform="matrix(0.999675, 0, 0, -0.999675, 0.0362628, 423.724295)"/>
<path fill="none" stroke-width="1.125" stroke-linecap="butt" stroke-linejoin="round" stroke="rgb(100%, 100%, 100%)" stroke-opacity="1" stroke-miterlimit="10" d="M 243.054492 262.235349 L 238.365467 262.235349 " transform="matrix(0.999675, 0, 0, -0.999675, 0.0362628, 423.724295)"/>
<path fill="none" stroke-width="1.875" stroke-linecap="square" stroke-linejoin="round" stroke="rgb(23.999023%, 23.999023%, 23.999023%)" stroke-opacity="1" stroke-miterlimit="10" d="M 312.037861 242.912659 L 312.037861 243.221354 " transform="matrix(0.999675, 0, 0, -0.999675, 0.0362628, 423.724295)"/>
<path fill="none" stroke-width="5.625" stroke-linecap="square" stroke-linejoin="round" stroke="rgb(23.999023%, 23.999023%, 23.999023%)" stroke-opacity="1" stroke-miterlimit="10" d="M 312.037861 243.029885 L 312.037861 243.111943 " transform="matrix(0.999675, 0, 0, -0.999675, 0.0362628, 423.724295)"/>
<path fill="none" stroke-width="1.125" stroke-linecap="butt" stroke-linejoin="round" stroke="rgb(100%, 100%, 100%)" stroke-opacity="1" stroke-miterlimit="10" d="M 314.382373 243.080683 L 309.693349 243.080683 " transform="matrix(0.999675, 0, 0, -0.999675, 0.0362628, 423.724295)"/>
<path fill="none" stroke-width="1.875" stroke-linecap="square" stroke-linejoin="round" stroke="rgb(23.999023%, 23.999023%, 23.999023%)" stroke-opacity="1" stroke-miterlimit="10" d="M 383.365743 204.575974 L 383.365743 292.553802 " transform="matrix(0.999675, 0, 0, -0.999675, 0.0362628, 423.724295)"/>
<path fill="none" stroke-width="5.625" stroke-linecap="square" stroke-linejoin="round" stroke="rgb(23.999023%, 23.999023%, 23.999023%)" stroke-opacity="1" stroke-miterlimit="10" d="M 383.365743 236.32458 L 383.365743 259.593865 " transform="matrix(0.999675, 0, 0, -0.999675, 0.0362628, 423.724295)"/>
<path fill="none" stroke-width="1.125" stroke-linecap="butt" stroke-linejoin="round" stroke="rgb(100%, 100%, 100%)" stroke-opacity="1" stroke-miterlimit="10" d="M 385.710255 246.964758 L 381.02123 246.964758 " transform="matrix(0.999675, 0, 0, -0.999675, 0.0362628, 423.724295)"/>
<path fill="none" stroke-width="1.875" stroke-linecap="square" stroke-linejoin="round" stroke="rgb(23.999023%, 23.999023%, 23.999023%)" stroke-opacity="1" stroke-miterlimit="10" d="M 454.693624 231.959879 L 454.693624 260.262051 " transform="matrix(0.999675, 0, 0, -0.999675, 0.0362628, 423.724295)"/>
<path fill="none" stroke-width="5.625" stroke-linecap="square" stroke-linejoin="round" stroke="rgb(23.999023%, 23.999023%, 23.999023%)" stroke-opacity="1" stroke-miterlimit="10" d="M 454.693624 242.924382 L 454.693624 250.395561 " transform="matrix(0.999675, 0, 0, -0.999675, 0.0362628, 423.724295)"/>
<path fill="none" stroke-width="1.125" stroke-linecap="butt" stroke-linejoin="round" stroke="rgb(100%, 100%, 100%)" stroke-opacity="1" stroke-miterlimit="10" d="M 457.038137 244.448315 L 452.349112 244.448315 " transform="matrix(0.999675, 0, 0, -0.999675, 0.0362628, 423.724295)"/>
<path fill="none" stroke-width="1.875" stroke-linecap="square" stroke-linejoin="round" stroke="rgb(23.999023%, 23.999023%, 23.999023%)" stroke-opacity="1" stroke-miterlimit="10" d="M 526.021506 217.959233 L 526.021506 267.319033 " transform="matrix(0.999675, 0, 0, -0.999675, 0.0362628, 423.724295)"/>
<path fill="none" stroke-width="5.625" stroke-linecap="square" stroke-linejoin="round" stroke="rgb(23.999023%, 23.999023%, 23.999023%)" stroke-opacity="1" stroke-miterlimit="10" d="M 526.021506 237.641414 L 526.021506 250.860556 " transform="matrix(0.999675, 0, 0, -0.999675, 0.0362628, 423.724295)"/>
<path fill="none" stroke-width="1.125" stroke-linecap="butt" stroke-linejoin="round" stroke="rgb(100%, 100%, 100%)" stroke-opacity="1" stroke-miterlimit="10" d="M 528.366018 244.792177 L 523.680901 244.792177 " transform="matrix(0.999675, 0, 0, -0.999675, 0.0362628, 423.724295)"/>
<path fill="none" stroke-width="0.8" stroke-linecap="square" stroke-linejoin="miter" stroke="rgb(0%, 0%, 0%)" stroke-opacity="1" stroke-miterlimit="10" d="M 62.386368 58.876253 L 62.386368 416.660564 " transform="matrix(0.999675, 0, 0, -0.999675, 0.0362628, 423.724295)"/>
<path fill="none" stroke-width="0.8" stroke-linecap="square" stroke-linejoin="miter" stroke="rgb(0%, 0%, 0%)" stroke-opacity="1" stroke-miterlimit="10" d="M 561.689354 58.876253 L 561.689354 416.660564 " transform="matrix(0.999675, 0, 0, -0.999675, 0.0362628, 423.724295)"/>
<path fill="none" stroke-width="0.8" stroke-linecap="square" stroke-linejoin="miter" stroke="rgb(0%, 0%, 0%)" stroke-opacity="1" stroke-miterlimit="10" d="M 62.386368 58.876253 L 561.689354 58.876253 " transform="matrix(0.999675, 0, 0, -0.999675, 0.0362628, 423.724295)"/>
<path fill="none" stroke-width="0.8" stroke-linecap="square" stroke-linejoin="miter" stroke="rgb(0%, 0%, 0%)" stroke-opacity="1" stroke-miterlimit="10" d="M 62.386368 416.660564 L 561.689354 416.660564 " transform="matrix(0.999675, 0, 0, -0.999675, 0.0362628, 423.724295)"/>
</svg>
